<?xml version="1.0" encoding="UTF-8"?><svg id="Layer_2" xmlns="http://www.w3.org/2000/svg" viewBox="0 0 195 175.5"><defs><style>.cls-1{font-family:MyriadPro-Regular, 'Myriad Pro';font-size:24px;}.cls-1,.cls-2{fill:#216182;}.cls-3{fill:#f2f2f2;}.cls-3,.cls-4,.cls-5{stroke-miterlimit:10;}.cls-3,.cls-5{stroke:#fff;}.cls-4{stroke:#216182;stroke-width:2px;}.cls-4,.cls-5{fill:none;}.cls-6{letter-spacing:0em;}</style></defs><g id="backend"><g><path class="cls-3" d="M112.3,64.6c43.2,0,50.2,39.1,50.2,39.1,0,0,32.1,9.2,32.1,34.5s-41.1,35.5-41.1,35.5l-118.7,1.3S3.5,166.9,.7,147.4c-2.8-19.5,21.3-29.9,21.3-29.9,0,0-4.6-13.8,18.1-24.2s26.4,.7,26.4,.7c0,0,12.3-29.5,45.7-29.5Z"/><text class="cls-1" transform="translate(84.6 108)"><tspan x="0" y="0">API</tspan></text><text class="cls-1" transform="translate(52.3 153)"><tspan x="0" y="0">B</tspan><tspan class="cls-6" x="13" y="0">A</tspan><tspan x="27.3" y="0">CKEND</tspan></text><line class="cls-5" x1="24.5" y1="120.5" x2="177.5" y2="120.5"/></g></g><g id="arrow"><g><line class="cls-4" x1="101.5" x2="101.5" y2="44"/><polyline class="cls-2" points="100.9 55.2 88 42 114.5 42"/></g></g></svg>