<?xml version="1.0" encoding="UTF-8"?><svg xmlns="http://www.w3.org/2000/svg" xmlns:xlink="http://www.w3.org/1999/xlink" viewBox="0 0 400 1068"><defs><style>.cls-1{fill:#646363;mix-blend-mode:screen;opacity:.3;}.cls-2{fill:url(#linear-gradient);}.cls-3{fill:#f3f3f3;}.cls-4{fill:#e9e9e9;}.cls-5,.cls-6{fill:#f5f5f5;}.cls-7{fill:#ff5348;}.cls-8{fill:#fff;}.cls-9{fill:#ffb73a;}.cls-10{fill:#ff4645;}.cls-11{fill:#8fc640;}.cls-12,.cls-13{fill:#bcbec0;}.cls-14{fill:#ddd;}.cls-15{fill:#e0e4ea;}.cls-16{fill:#56504f;}.cls-17{fill:#369bc2;}.cls-18{fill:url(#_ÂÁ_Ï_ÌÌ_È_ËÂÌÚ_29);mix-blend-mode:overlay;opacity:.4;}.cls-19{fill:#787778;opacity:.2;}.cls-19,.cls-13,.cls-20,.cls-21{mix-blend-mode:multiply;}.cls-20{fill:#e3e4e5;}.cls-21{fill:#bb202e;opacity:.4;}.cls-22{fill:url(#linear-gradient-2);}.cls-23{mix-blend-mode:soft-light;}.cls-24{opacity:.8;}.cls-25{isolation:isolate;}.cls-6{opacity:.4;}@keyframes fall {0% {transform: translateY( 0 );}100% {transform: translateY( 1000px );}}#video {animation: fall 3.5s infinite linear;}#files {animation: fall 2.5s 1.s infinite linear;}#pic {animation: fall 3s .7s infinite linear;}#doc {animation: fall 4s .5s infinite linear;}</style><linearGradient id="_ÂÁ_Ï_ÌÌ_È_ËÂÌÚ_29" x1="275.2" y1="927.9" x2="361.3" y2="927.9" gradientUnits="userSpaceOnUse"><stop offset="0" stop-color="#fff7cc"/><stop offset="1" stop-color="#fff7cc"/></linearGradient><linearGradient id="linear-gradient" x1="0" y1="1047.1" x2="251.1" y2="1047.1" gradientUnits="userSpaceOnUse"><stop offset=".2" stop-color="#fff"/><stop offset=".5" stop-color="#cfd0d2"/><stop offset=".7" stop-color="#bcbec0"/><stop offset=".8" stop-color="#c5c7c8"/><stop offset=".9" stop-color="#dedfe0"/><stop offset="1" stop-color="#fff"/></linearGradient><linearGradient id="linear-gradient-2" x1="43.2" y1="1019.3" x2="171.6" y2="1019.3" gradientUnits="userSpaceOnUse"><stop offset=".2" stop-color="#fff"/><stop offset=".7" stop-color="#cfd0d2"/><stop offset="1" stop-color="#bcbec0"/></linearGradient></defs><g class="cls-25"><g id="Layer_2"><g id="video"><g><rect class="cls-10" x="64.1" y="242.7" width="82.2" height="51" rx="10.2" ry="10.2" transform="translate(-65.1 35.8) rotate(-14.8)"/><rect class="cls-7" x="64" y="241.3" width="82.2" height="51" rx="10.2" ry="10.2" transform="translate(-64.8 35.8) rotate(-14.8)"/><g><path class="cls-23" d="M118.7,263l-24.4-6.6c-2-.6-3.9,1.3-3.4,3.4l6.5,24.4c.5,2,3.1,2.7,4.6,1.2l17.9-17.8c1.5-1.5,.8-4-1.2-4.6Z"/><path class="cls-8" d="M118.8,261.8l-24.4-6.6c-2-.6-3.9,1.3-3.4,3.4l6.5,24.4c.5,2,3.1,2.7,4.6,1.2l17.9-17.8c1.5-1.5,.8-4-1.2-4.6Z"/></g></g></g><g id="pic"><g><rect class="cls-8" x="24.4" y="152.4" width="72.3" height="86.5" transform="translate(29.9 -6.8) rotate(8.6)"/><g><g><rect class="cls-15" x="26.6" y="213.1" width="63.3" height="3.4" transform="translate(32.7 -6.3) rotate(8.6)"/><rect class="cls-15" x="25.5" y="220.3" width="63.3" height="3.4" transform="translate(33.8 -6) rotate(8.6)"/><rect class="cls-15" x="24.5" y="227.5" width="63.3" height="3.4" transform="translate(34.8 -5.8) rotate(8.6)"/></g><g><rect class="cls-15" x="31.6" y="160.2" width="63" height="45.4" transform="translate(28 -7.4) rotate(8.6)"/><polygon class="cls-8" points="28.6 200.7 52.2 170.7 65.7 206.2 28.6 200.7"/><polygon class="cls-8" points="55.7 201.3 76.3 185.1 90.8 210.1 55.9 204.8 55.7 201.3"/><path class="cls-8" d="M91.7,175.4c-.6,3.9-4.3,6.6-8.2,6s-6.6-4.3-6-8.2c.6-3.9,4.3-6.6,8.2-6,3.9,.6,6.6,4.3,6,8.2Z"/></g></g></g></g><g id="files"><g><path class="cls-9" d="M106.5,166.6v-3.4c0-2.2-1.8-4-4-4h-38.4c-2.2,0-4,1.8-4,4v70.5h89.5v-58.6c0-2.8-2.3-5-5-5h-34.6c-1.9,0-3.4-1.5-3.4-3.4Z"/><rect class="cls-4" x="62.4" y="173.8" width="81" height="58.5"/><rect class="cls-3" x="64.3" y="171.5" width="81" height="58.5"/><path class="cls-9" d="M59,236.4c-.4-9.7-1.2-29.9-2.5-41.5-.5-4.1,2.7-7.7,6.9-7.7h22.1c3.9,0,7.7-1.5,10.7-4.1l5.1-4.7c2.2-2,5-3.1,8-3.1h39.4c5.3,0,9.3,4.6,8.6,9.8-1.9,13.8-5.2,38.7-5.3,51.6,0,3.1-2.6,5.6-5.7,5.6-16.9-.2-65.2-.6-81.5-.6-3,0-5.5-2.4-5.6-5.4Z"/></g></g><g id="doc"><g><path class="cls-8" d="M171.6,4.1V163H31V4.1c0-2.3,1.8-4.1,4.1-4.1H167.5c2.3,0,4.1,1.8,4.1,4.1Z"/><g><g><rect class="cls-15" x="37.7" y="17.4" width="128.9" height="3.8"/><rect class="cls-15" x="37.7" y="25.4" width="128.9" height="3.8"/><rect class="cls-15" x="37.7" y="33.4" width="128.9" height="3.8"/></g><g><g><rect class="cls-15" x="104.1" y="48.5" width="62.8" height="3.8"/><rect class="cls-15" x="104.1" y="56.5" width="62.8" height="3.8"/><rect class="cls-15" x="104.1" y="64.5" width="62.8" height="3.8"/></g><g><rect class="cls-15" x="104.1" y="71.9" width="62.8" height="3.8"/><rect class="cls-15" x="104.1" y="79.9" width="62.8" height="3.8"/><rect class="cls-15" x="104.1" y="87.9" width="62.8" height="3.8"/></g></g><rect class="cls-15" x="38" y="42.8" width="62.5" height="54"/><g><g><rect class="cls-15" x="38" y="147.4" width="62.8" height="3.8" transform="translate(138.9 298.6) rotate(180)"/><rect class="cls-15" x="38" y="139.4" width="62.8" height="3.8" transform="translate(138.9 282.6) rotate(180)"/><rect class="cls-15" x="38" y="131.4" width="62.8" height="3.8" transform="translate(138.9 266.5) rotate(180)"/></g><g><rect class="cls-15" x="38" y="124" width="62.8" height="3.8" transform="translate(138.9 251.8) rotate(180)"/><rect class="cls-15" x="38" y="116" width="62.8" height="3.8" transform="translate(138.9 235.8) rotate(180)"/><rect class="cls-15" x="38" y="108" width="62.8" height="3.8" transform="translate(138.9 219.7) rotate(180)"/></g></g><rect class="cls-15" x="104.4" y="102.8" width="62.5" height="54" transform="translate(271.3 259.6) rotate(180)"/></g></g></g><g id="body"><rect class="cls-14" x="112.1" y="1044.8" width="269.9" height="5.6" transform="translate(-829.2 1049.8) rotate(-76.8)"/><path class="cls-11" d="M361.3,935.7s-19.4-25.2-48.4-18.2c-29,7-37.7-4-37.7-4l-15.1,63s15.4,9.2,47.4,0c25.9-7.5,36.6,23.5,36.6,23.5,8.4-13.8,11.2-41.2,17.1-64.3Z"/><path class="cls-18" d="M318.3,921.1c10.5-1.3,29.7,2.8,41.4,21.1,.5-2.2,1-4.4,1.6-6.6,0,0-19.4-25.2-48.4-18.2-29,7-37.7-4-37.7-4,0,0,1.9,12.6,43,7.7Z"/><g class="cls-24"><path class="cls-8" d="M318.1,967.3c-10.3,0-18.7-8.4-18.7-18.7s8.4-18.7,18.7-18.7,9.9,2.1,13.3,5.6c-3.9-5.3-10.2-8.8-17.4-8.8-11.9,0-21.5,9.6-21.5,21.5s9.6,21.5,21.5,21.5,10.3-2,14-5.2c-2.9,1.8-6.3,2.9-10,2.9Z"/><path class="cls-8" d="M324.6,932.9c4.5,2.6,7.5,7.5,7.5,13.1,0,8.4-6.8,15.2-15.2,15.2s-14.2-5.9-15.1-13.5c0,.3,0,.6,0,.9,0,9.3,7.5,16.8,16.8,16.8s16.8-7.5,16.8-16.8-4.5-13.3-10.9-15.7Z"/><path class="cls-8" d="M316.5,934c-5.6,0-10.4,3.8-11.9,8.9,1.7-3.8,5.5-6.5,10-6.5s11,4.9,11,11-4.9,11-11,11-1.9-.1-2.9-.4c1.5,.6,3.1,1,4.8,1,6.9,0,12.5-5.6,12.5-12.5s-5.6-12.5-12.5-12.5Z"/></g><path class="cls-17" d="M17,1082.3c1.4,6.5,5.5,18.8,14.5,19.1,9,.2,11.7-6.2,11.7-6.2l-7.6-14.6-18.6,1.8Z"/><path class="cls-21" d="M38.8,1099.7c3.2-1.8,4.4-4.5,4.4-4.5l-7.6-14.6-6.3,.6c2,6.7,5.3,13,9.4,18.6Z"/><path class="cls-17" d="M230.7,1024.3s12.4,16,20.4,15.3c11.6-1.1,10.7-22.7,4.9-24.1-5.8-1.4-15.5-6.6-15.5-6.6l-9.8,15.4Z"/><path class="cls-21" d="M232.9,1020.8l-2.2,3.5s12.4,16,20.4,15.3c1.8-.2,3.2-.9,4.5-1.9-2.7-10.2-13.4-13.2-22.6-16.9Z"/><path class="cls-17" d="M260,1028.2c-.4-3.9-1.9-7.1-4-7.7-5.8-1.4-15.5-6.6-15.5-6.6l-7.9,12.5c-1.1-1.3-1.8-2.2-1.8-2.2l9.8-15.4s9.7,5.2,15.5,6.6c3,.7,4.7,6.9,4,12.8Z"/><path class="cls-2" d="M251.1,1010.2l-19.4,17.6-3,2.7c-10.7-11.9-21.6-21.7-32.7-24.6,0,0-2.6,95.7-55.7,153.3l-23.7-1.4-6.2-53.7-.9,53.7-23.7,1.4s-32.3-22.1-52.3-73.4l-18.9,3.7s-31.3-55.4-2.4-106.6c15.1-26.8,41.5-44.2,88-47.6,59.6-4.3,110.9,20.3,150.8,74.8Z"/><path class="cls-19" d="M109.5,1095.1c-4.4,1.2-6.1,54.2-5.5,63.1l5.5-.3,.9-53.7,6.2,53.7,4.5,.3c2.3-16.7-9.2-63.7-11.6-63Z"/><path class="cls-5" d="M91.6,1159l-5.8,.3s-30.7-21-50.7-69.6c32.3,49.4,51.9,63.4,56.5,69.2Zm45.1,.1l3.6,.2c49-53.2,55-138.9,55.6-151.7-3.3,30.2-24.3,111.4-59.2,151.4ZM17,985.5c20-46.2,113.6-37.6,134.2-35.4,44.5,4.9,85.4,44.8,97.5,62.3l2.4-2.2c-40-54.5-91.3-79.2-150.8-74.9-46.5,3.4-72.8,20.8-88,47.6-28.9,51.2,2.4,106.6,2.4,106.6l3.3-.7c-7.7-20.4-24.8-48.5-1-103.4Z"/><path class="cls-17" d="M181.4,955.1H31.2c-5.8,0-10.6-4.7-10.6-10.6h0c0-5.8,4.7-10.6,10.6-10.6H181.4c5.8,0,10.6,4.7,10.6,10.6h0c0,5.8-4.7,10.6-10.6,10.6Z"/><path class="cls-21" d="M192,944.5c0,2.9-1.2,5.6-3.1,7.5-1.9,1.9-4.6,3.1-7.5,3.1H31.2c-5.8,0-10.6-4.7-10.6-10.6s.2-2.3,.6-3.4c1.4,4.2,5.3,7.2,10,7.2H181.4c2.9,0,5.6-1.2,7.5-3.1,1.1-1.1,2-2.5,2.5-4.1,.4,1.1,.6,2.2,.6,3.4Z"/><polygon class="cls-17" points="85.8 1159.3 87.7 1165.2 79.8 1170.6 110 1169.6 109.5 1157.9 85.8 1159.3"/><g><path class="cls-12" d="M170.3,1022c1.3,21.7,12.8,29.7,21.3,21.4,2.1-2.1,4.6,6.4-3.9,12.5-8.1,5.9-26,4.4-24.8-33.5,0,0,7.3-1,7.4-.4Z"/><path class="cls-13" d="M176.6,1058.1c1-.7,1.9-1.4,2.6-2.2,2.5-2.7,3.3-6,3.2-9.5-6-1.6-11.4-9.9-12.2-24.3,0-.6-7.4,.4-7.4,.4-.8,24.4,6.3,33.7,13.7,35.7Z"/><path class="cls-12" d="M182.5,949.4c-7.9,.8-20.4,19.9-16.2,38.5,.6,2.7,4.8,1.2,5-1.3,.8-14.5,10-29,17.8-31.5,5.7-1.8-4.4-5.9-6.6-5.7Z"/><path class="cls-13" d="M171.3,959.3c-4.4,7.4-7.4,18.1-5,28.6,.6,2.7,4.8,1.2,5-1.3,.4-7,2.7-13.9,5.9-19.6-1.7-2.8-3.5-5.5-5.9-7.7Z"/><path class="cls-6" d="M181.1,952.5c2.3,.9,4.3,2,6.2,3.3,.6-.3,1.2-.6,1.8-.8,5.7-1.8-4.4-5.9-6.6-5.7-1.4,.1-2.9,.9-4.5,2,1,.3,2,.7,3,1.1Z"/><path class="cls-6" d="M191.6,1043.5c-1.1,1.1-2.3,1.9-3.5,2.4,.1,4.1-.7,8.1-3,11.5,.9-.4,1.8-.9,2.6-1.4,8.5-6.1,6.1-14.6,3.9-12.5Z"/></g><g><path class="cls-16" d="M59.7,1022.5c1.2,37.9-16.7,39.4-24.8,33.5-1.8-1.3-3.5-2.4-4.3-3.4-.4-3.2-.3-6-.5-9.6,8.6,8.3,21,.7,22.2-20.9,0-.6,7.4,.4,7.4,.4Z"/><path class="cls-12" d="M59.7,1022.5c1.2,37.9-16.7,39.4-24.8,33.5-1.8-1.3-3.5-2.4-4.3-3.4-.4-3.2-.3-6-.5-9.6,8.6,8.3,21,.7,22.2-20.9,0-.6,7.4,.4,7.4,.4Z"/><path class="cls-12" d="M33.5,955.1c7.8,2.5,16.9,17,17.8,31.5,.1,2.5,4.4,4.1,5,1.3,4.2-18.6-8.3-37.8-16.2-38.5-2.2-.2-12.3,3.8-6.6,5.7Z"/><path class="cls-13" d="M51.3,959.3c4.4,7.4,7.4,18.1,5,28.6-.6,2.7-4.8,1.2-5-1.3-.4-7-2.7-13.9-5.9-19.6,1.7-2.8,3.5-5.5,5.9-7.7Z"/><path class="cls-6" d="M41.6,952.5c-2.3,.9-4.3,2-6.2,3.3-.6-.3-1.2-.6-1.8-.8-5.7-1.8,4.4-5.9,6.6-5.7,1.4,.1,2.9,.9,4.5,2-1,.3-2,.7-3,1.1Z"/></g><path class="cls-21" d="M98.4,1169.9l11.6-.4-.5-11.7-6.6,.4c-.1,4.5-1.8,8.5-4.6,11.7Z"/><polygon class="cls-17" points="140.3 1159.3 138.4 1165.2 146.3 1170.6 116.1 1169.6 116.6 1157.9 140.3 1159.3"/><path class="cls-21" d="M123,1158.3l-6.4-.4-.5,11.7,9.7,.3c-1.8-3.7-2.9-7.7-2.9-11.6Z"/><path class="cls-22" d="M50.3,958.7c7.2-8.5,102.5-7.7,112.9,0,10.3,7.7,11.1,115.5,3,122.7-8.1,7.2-112,5.1-117.1-.7-9.6-10.8-6-113.5,1.3-122Z"/><path class="cls-19" d="M166.1,1080.4c-8.1,8.8-112,6.2-117.1-.9-4.5-6.2-6.1-36.8-5.8-68.7,.2,26.9,1.9,50.3,5.8,55.6,5.1,7.1,109,9.7,117.1,.9,3.4-3.7,5.3-29.3,5.4-58.4,.3,34.1-1.5,67.2-5.4,71.5Z"/><path class="cls-1" d="M106.5,959.8c-25.6,0-50.9,.9-54.4,3-3.7,2.2-6.5,17.5-6.9,32.2-.5-16.5,2.6-36.7,6.9-39.3,7.1-4.2,101-3.8,111.1,0,6,2.3,8.7,22.1,8.3,38.7-.4-14.7-3.1-29.6-8.3-31.5-5.1-1.9-31.1-3-56.7-3"/><path class="cls-20" d="M64,996.6c-6.7,7.6-8,53,0,57.3,8,4.3,82.3,4.8,85,0,2.7-4.8,6.1-50.9,0-57.3-6.1-6.4-78.3-7.6-85,0Z"/><path class="cls-20" d="M29,1007.7c0-.2-.5-3.4-1.8,2.5-6.2,27.7-1.1,64.8,2.9,76.4,1.2-.3,2.2-.5,3.5-.7-2.5-16.4-4.8-65.1-4.6-78.2Z"/><path class="cls-19" d="M231.7,1027.8l-3,2.7c-10.7-11.9-21.6-21.7-32.7-24.6-.1,0,6.3-3.9,22.6,7.5,3.6,2.5,9.8,8.7,13,14.4Z"/><path class="cls-8" d="M112.4,1044.9c-11.2,0-20.2-9.1-20.2-20.2s9.1-20.2,20.2-20.2,10.7,2.3,14.4,6c-4.2-5.8-11.1-9.5-18.8-9.5-12.8,0-23.2,10.4-23.2,23.2s10.4,23.2,23.2,23.2,11.1-2.1,15.2-5.6c-3.1,2-6.8,3.1-10.8,3.1Z"/><path class="cls-8" d="M119.4,1007.7c4.9,2.8,8.1,8.1,8.1,14.2,0,9.1-7.3,16.4-16.4,16.4s-15.4-6.4-16.3-14.5c0,.3,0,.6,0,1,0,10,8.1,18.2,18.2,18.2s18.2-8.1,18.2-18.2-4.9-14.4-11.8-17Z"/><path class="cls-8" d="M110.6,1009c-6.1,0-11.3,4.1-12.9,9.6,1.9-4.1,6-7,10.8-7s11.8,5.3,11.8,11.8-5.3,11.8-11.8,11.8-2.1-.1-3.1-.4c1.6,.7,3.3,1,5.2,1,7.4,0,13.5-6,13.5-13.5s-6-13.5-13.5-13.5Z"/></g></g></g></svg>