<?xml version="1.0" encoding="UTF-8"?><svg id="Layer_2" xmlns="http://www.w3.org/2000/svg" viewBox="0 0 136.8 136.8"><defs><style>.cls-1{fill:#216182;}.cls-2{fill:#f2f2f2;stroke:#fff;stroke-miterlimit:10;}</style></defs><g id="body"><circle class="cls-2" cx="68.4" cy="68.4" r="67.9" transform="translate(-16.9 114) rotate(-73.2)"/><g id="e6E8GV.tif"><g><path class="cls-1" d="M58.4,106.4h-5c0-2.8,0-5.5,0-8.2,0-1.3,1.2-2.1,2.5-2.1,1.3,0,2.4,.9,2.4,2.3,0,2.6,0,5.3,0,8Z"/><path class="cls-1" d="M68.9,98.6c0-1.5,1.2-2.5,2.6-2.5,1.5,0,2.5,1.2,2.4,2.7,0,1.5-1.2,2.5-2.6,2.4-1.5,0-2.5-1.2-2.4-2.6Z"/><path class="cls-1" d="M62.7,51.9c-.6,.5-.9,1-1.3,1.1-.9,.3-1.8,.5-2.7,.8-.4,.2-.8,.6-.9,1-.3,.8-.4,1.8-.8,2.6-.2,.4-.8,.9-1.2,.9-.3,0-1-.6-1-.9-.3-2.7-1.6-4.1-4.3-4.3-.7,0-1.1-.5-1-1.2,.1-.4,.6-1,1-1,2.6-.3,4.1-1.7,4.3-4.4,0-.4,.7-.9,1.1-.9,.4,0,1,.5,1.1,.9,.3,2.7,1.7,4.1,4.4,4.4,.4,0,.7,.6,1.4,1.1Z"/></g></g><g><path class="cls-1" d="M74.1,89.1c-.9-2.8,0-5.2,2.5-6.7,.7-.4,1.5-.9,2.3-1.3,0-.2,0-.5,0-.8-.8-.4-1.5-.8-2.2-1.2h-.2c-.4-.4-.7-.6-1-.9-3.4,1.4-7,2.2-10.8,2.3-6.6,.2-12.8-1.4-18.3-5.1-.6-.4-1.1-.5-1.7-.1-2.1,1.3-4.5,2.3-6.4,3.8-6.9,5.5-10.6,12.8-11,21.6-.2,3.6,1.8,5.8,5.4,5.8,4.3,0,8.5,0,12.8,0h2.5v-1.3c0-3,0-5.9,0-8.9,0-3.2,1.9-5.4,4.9-5.4,7.2,0,14.4,0,21.5,0,.1,0,.2,0,.4,0-.2-.6-.5-1.2-.7-1.8Z"/><path class="cls-1" d="M90,102.1c0-.5,0-1.1,0-1.6,0-.4,0-.7,0-1.1-.2-.1-.5-.3-.8-.5-.9,.6-1.8,1.1-2.7,1.5-.8,.4-1.6,.6-2.5,.6-1.6,0-3.2-.7-4.3-2-.2-.2-.3-.4-.4-.5,0,2.2,0,4.4,0,6.6,0,.4,0,.8,0,1.2,.2,0,.3,.1,.3,.1,4.1,0,8.1,0,12.2,0-1.1-1-1.7-2.4-1.8-4.3Z"/></g><path class="cls-1" d="M74,72.7c1-3.6,2.9-7,6-10.5,1-1.1,2.4-1.8,3.9-1.8s1.9,.3,2.8,.7c.1-.2,.2-.4,.3-.6,.3-.6,.6-.9,1.3-1.1,.6-.1,1.2-.4,1.7-.7,.2-1.8,.9-3.2,2.1-4.1,0-1.8,0-3.6,0-5.4,0-1.8,0-3.6,0-5.4,0-2.5-1.4-4.2-3.8-4.7-.7-.2-1-.5-1.3-1.1-1.3-2.8-3.1-5.2-5.3-7.3-12.7-12.3-33.8-8.6-41.5,7.4-.2,.4-.7,.9-1.2,1-2.1,.6-3.7,2.3-3.7,4.4-.1,3.9-.1,7.9,0,11.8,0,1.9,1.7,3.7,3.6,4.2,.8,.2,1.1,.6,1.5,1.3,1.3,2,2.4,4.1,4,5.9,7.9,8.8,19.9,10.6,29.6,6.5,0-.1,0-.3,0-.4Zm-16.2-8.2c-7.4-1.3-12.4-7.7-12.4-15.5,0-1.8,.1-3.7,.8-5.4,1.2-3.3,4-4.7,7.4-4.7,3.3,0,6.7,0,10.1,0,3.2,0,6.5,0,9.7,0,5.1,0,8.3,3.3,8.4,8.4,0,3.5-.3,7-2.2,10.1-2.6,4.2-6.3,6.9-11.2,7.3-3.5,.3-7.1,.4-10.5-.2Z"/></g><g id="gear"><path class="cls-1" d="M100.1,56c1.7,.2,3.3,.3,5,.5,1.2,.2,2,1.2,2.1,2.5,0,1.4,0,2.8,0,4.2,0,.4,.3,.8,.6,1.1,.3,.3,.9,.4,1.2,.7,1.3,1.3,2.5,1,3.7,0,.6-.5,1.3-.8,1.9-1.2,1.2-.7,2.3-.5,3.2,.5,2.5,2.7,4.2,5.8,5.3,9.3,.3,1.1,0,2-1,2.6-1,.6-2,1.2-3,1.8-.2,.1-.4,.2-.6,.3-.9,.6-.8,4.3,.1,4.8,1,.6,2,1.1,3,1.7,1.5,.9,1.8,1.9,1.3,3.5-1,3.2-2.6,6-4.8,8.5-1.1,1.3-2.1,1.5-3.6,.7-1.1-.6-2.2-1.3-3.3-1.8-.3-.1-.8,0-1.1,0-.5,.2-.9,.7-1.4,.8-1.5,.5-1.9,1.5-1.7,2.9,.1,.9,0,1.7,0,2.6,0,1.6-.7,2.4-2.2,2.7-3.1,.7-6.3,.7-9.5,0-1.8-.4-2.5-1.1-2.5-3,0-1.2,0-2.5,0-3.7,0-.4-.4-.8-.7-1.1-.3-.3-.9-.4-1.2-.7-1.2-1.3-2.3-1-3.6,0-.7,.5-1.5,.9-2.3,1.3-1.2,.5-2.4,.3-3.2-.7-2.3-2.6-3.9-5.5-5-8.8-.4-1.4,0-2.5,1.2-3.2,1.1-.6,2.1-1.2,3.2-1.8,.5-.3,.7-.6,.6-1.2,0-.5-.2-1,0-1.5,.4-1.5-.3-2.2-1.6-2.8-.8-.3-1.5-.8-2.3-1.3-1.2-.7-1.5-1.6-1.2-2.9,.9-3.6,2.9-6.6,5.4-9.3,.8-.9,2-1,3.1-.4,.9,.5,1.8,1,2.7,1.7,.9,.7,1.6,.6,2.4,0,.3-.3,.7-.5,1-.6,1.3-.4,1.7-1.2,1.6-2.5-.1-1,0-1.9,0-2.9,0-1.8,.8-2.7,2.6-2.9,1.5-.2,3-.3,4.5-.5Zm7.8,24.9c0-4.3-3.3-7.9-7.7-7.9-4.3,0-7.8,3.3-7.9,7.6-.1,4.3,3.4,8.1,7.8,8,4.3,0,7.8-3.2,7.9-7.7Z"/></g></svg>