<?xml version="1.0" encoding="UTF-8"?><svg id="Layer_2" xmlns="http://www.w3.org/2000/svg" viewBox="0 0 136.8 136.8"><defs><style>.cls-1{fill:#216182;}.cls-2{fill:#f2f2f2;stroke:#fff;stroke-miterlimit:10;}</style></defs><g id="Layer_3"><circle class="cls-2" cx="68.4" cy="68.4" r="67.9" transform="translate(-16.9 114) rotate(-73.2)"/></g><g id="body"><path class="cls-1" d="M71.4,73.5c0,3,1,5.5,3.5,7.2-.7,.7-1.4,1.4-1.9,2.1-1.5,2-1.9,4.1-1.2,6.6,1.3,4.5,3.6,8.3,6.8,11.7,2.1,2.3,4.8,2.7,7.8,2,.4-.1,.9-.3,1.2-.4,.4,1.4,.8,2.7,1.2,4.1-.2,0-.5,0-.8,0-20.1,0-40.2,0-60.4,0-3.6,0-5.6-2.1-5.4-5.8,.4-7.2,2.8-13.5,7.7-18.7,4.5-4.9,10.2-7.9,16.8-8.8,2.3-.3,4.6-.4,6.9-.4,5.2,0,10.5,.1,15.7,.2,.7,0,1.4,.2,2.2,.3Z"/><path class="cls-1" d="M37.7,44.4c.1-11,8-20.8,20.8-20.8,11.9,0,20.6,9,20.7,20.7,0,11.6-9,20.8-20.6,20.8-12,0-20.7-8.9-20.9-20.7Z"/></g><g id="gear"><path class="cls-1" d="M100.1,56c1.7,.2,3.3,.3,5,.5,1.2,.2,2,1.2,2.1,2.5,0,1.4,0,2.8,0,4.2,0,.4,.3,.8,.6,1.1,.3,.3,.9,.4,1.2,.7,1.3,1.3,2.5,1,3.7,0,.6-.5,1.3-.8,1.9-1.2,1.2-.7,2.3-.5,3.2,.5,2.5,2.7,4.2,5.8,5.3,9.3,.3,1.1,0,2-1,2.6-1,.6-2,1.2-3,1.8-.2,.1-.4,.2-.6,.3-.9,.6-.8,4.3,.1,4.8,1,.6,2,1.1,3,1.7,1.5,.9,1.8,1.9,1.3,3.5-1,3.2-2.6,6-4.8,8.5-1.1,1.3-2.1,1.5-3.6,.7-1.1-.6-2.2-1.3-3.3-1.8-.3-.1-.8,0-1.1,0-.5,.2-.9,.7-1.4,.8-1.5,.5-1.9,1.5-1.7,2.9,.1,.9,0,1.7,0,2.6,0,1.6-.7,2.4-2.2,2.7-3.1,.7-6.3,.7-9.5,0-1.8-.4-2.5-1.1-2.5-3,0-1.2,0-2.5,0-3.7,0-.4-.4-.8-.7-1.1-.3-.3-.9-.4-1.2-.7-1.2-1.3-2.3-1-3.6,0-.7,.5-1.5,.9-2.3,1.3-1.2,.5-2.4,.3-3.2-.7-2.3-2.6-3.9-5.5-5-8.8-.4-1.4,0-2.5,1.2-3.2,1.1-.6,2.1-1.2,3.2-1.8,.5-.3,.7-.6,.6-1.2,0-.5-.2-1,0-1.5,.4-1.5-.3-2.2-1.6-2.8-.8-.3-1.5-.8-2.3-1.3-1.2-.7-1.5-1.6-1.2-2.9,.9-3.6,2.9-6.6,5.4-9.3,.8-.9,2-1,3.1-.4,.9,.5,1.8,1,2.7,1.7,.9,.7,1.6,.6,2.4,0,.3-.3,.7-.5,1-.6,1.3-.4,1.7-1.2,1.6-2.5-.1-1,0-1.9,0-2.9,0-1.8,.8-2.7,2.6-2.9,1.5-.2,3-.3,4.5-.5Zm7.8,24.9c0-4.3-3.3-7.9-7.7-7.9-4.3,0-7.8,3.3-7.9,7.6-.1,4.3,3.4,8.1,7.8,8,4.3,0,7.8-3.2,7.9-7.7Z"/></g></svg>