<svg id="Group_377" data-name="Group 377" xmlns="http://www.w3.org/2000/svg" xmlns:xlink="http://www.w3.org/1999/xlink" width="366.49" height="108" viewBox="0 0 366.49 108">
  <defs>
    <clipPath id="clip-path">
      <rect id="Rectangle_109" data-name="Rectangle 109" width="366.49" height="108" fill="none"/>
    </clipPath>
  </defs>
  <g id="Group_376" data-name="Group 376" clip-path="url(#clip-path)">
    <path id="Path_108" data-name="Path 108" d="M343.51,1.21h9.27V33.79c0,2.88,1.06,4.15,3.61,4.15a7.452,7.452,0,0,0,2.24-.26v8.43a16.23,16.23,0,0,1-4.42.45c-7.15,0-10.7-3.77-10.7-11.31ZM329.77,25.94c0-3-3.05-5.36-6.78-5.36-4.04,0-7.34,2.36-7.59,5.36Zm-23.76,3.64c0-5.05,1.62-9.14,4.79-12.2a16.667,16.667,0,0,1,12.19-4.66,15.331,15.331,0,0,1,11.63,4.73,16.1,16.1,0,0,1,4.48,11.63c0,1.09-.06,2.11-.12,3.07h-23.7c.19,3.83,3.42,6.32,8.34,6.32a10.616,10.616,0,0,0,7.65-3.13l5.41,5.3a17.908,17.908,0,0,1-13.5,5.88c-5.16,0-9.27-1.53-12.44-4.53-3.17-3.07-4.73-7.09-4.73-12.14Zm-1.93-11.05-5.85,5.94a9.4,9.4,0,0,0-7.22-3.32c-4.54,0-8.02,3.58-8.02,8.43a8.029,8.029,0,0,0,8.02,8.37,9.447,9.447,0,0,0,7.22-3.32l5.85,5.94a16.739,16.739,0,0,1-13.06,6.01,17,17,0,0,1-12.32-4.86,16.364,16.364,0,0,1-4.98-12.14,16.364,16.364,0,0,1,4.98-12.14,17.056,17.056,0,0,1,12.32-4.92,16.707,16.707,0,0,1,13.06,6.01m-43.79-4.98h9.27v32.2h-9.27ZM264.89,0a5.318,5.318,0,0,1,5.29,5.43,5.291,5.291,0,1,1-10.58,0A5.324,5.324,0,0,1,264.89,0M232.61,35.27a7.732,7.732,0,0,0,5.66,2.3,7.91,7.91,0,0,0,5.78-2.3,7.4,7.4,0,0,0,2.43-5.62,7.562,7.562,0,0,0-2.43-5.69,7.708,7.708,0,0,0-5.78-2.36,7.558,7.558,0,0,0-5.66,2.36,7.653,7.653,0,0,0-2.3,5.69,7.566,7.566,0,0,0,2.3,5.62m-7.15-17.45a14.47,14.47,0,0,1,11.13-4.85c4.73,0,8.4,1.98,9.33,4.79V13.54h9.27V40.37c0,7.48-1.18,12.33-5.47,15.72a17.384,17.384,0,0,1-11.38,3.71c-6.1,0-11.2-1.53-15.36-4.54l4.42-6.9a17.5,17.5,0,0,0,9.64,3.07,11.2,11.2,0,0,0,6.41-1.66c1.8-1.28,2.74-3.64,2.74-7.03v-.7c-1.31,2.3-5.04,3.9-9.58,3.9a14.739,14.739,0,0,1-11.13-4.66,16.471,16.471,0,0,1-4.42-11.63,16.855,16.855,0,0,1,4.4-11.83m-17.85-4.27h9.27v32.2h-9.27ZM212.21,0a5.318,5.318,0,0,1,5.29,5.43,5.291,5.291,0,1,1-10.58,0A5.318,5.318,0,0,1,212.21,0M172.4,36.8h6.28c10.2,0,13.93-5.05,13.93-13.22,0-4.15-1.06-7.47-3.17-9.84-2.05-2.36-5.66-3.58-10.82-3.58H172.4Zm-9.58,8.94V1.21h16.42c7.34,0,13,2.05,16.98,6.2,4.04,4.09,6.03,9.46,6.03,16.16s-1.99,12.14-5.97,16.16c-3.92,4.03-9.58,6.01-16.98,6.01Z" fill="#fff"/>
    <path id="Path_109" data-name="Path 109" d="M344.27,100.11c1.5,4.94,5.87,7.82,11.67,7.82,6.74,0,10.55-3.98,10.55-8.91s-2.75-7.38-9.24-10.13c-5.06-2.12-7.18-3.59-7.18-6.86,0-3.01,2.37-4.94,5.62-4.94a6.229,6.229,0,0,1,5.81,3.4l2.56-1.35a8.682,8.682,0,0,0-8.43-5.07c-4.99,0-8.68,3.34-8.68,7.95,0,4.81,2.68,6.86,8.36,9.36a27.683,27.683,0,0,1,6.24,3.4,5.129,5.129,0,0,1,1.81,4.23c0,3.27-2.37,5.9-7.43,5.9-4.75,0-7.8-2.31-9.05-5.84Zm-25.22,0c1.5,4.94,5.87,7.82,11.67,7.82,6.74,0,10.55-3.98,10.55-8.91s-2.75-7.38-9.24-10.13c-5.06-2.12-7.18-3.59-7.18-6.86,0-3.01,2.37-4.94,5.62-4.94a6.2,6.2,0,0,1,5.8,3.4l2.56-1.35a8.682,8.682,0,0,0-8.43-5.07c-4.99,0-8.68,3.34-8.68,7.95,0,4.81,2.69,6.86,8.37,9.36a27.683,27.683,0,0,1,6.24,3.4,5.129,5.129,0,0,1,1.81,4.23c0,3.27-2.37,5.9-7.43,5.9-4.74,0-7.8-2.31-9.05-5.84ZM291.4,88.95a11.972,11.972,0,0,1,3.68-8.4,11.7,11.7,0,0,1,8.49-3.46,10.511,10.511,0,0,1,7.99,3.46,12.135,12.135,0,0,1,3.37,8.4Zm-3.19,2.37a17.135,17.135,0,0,0,4.31,12.06A14.706,14.706,0,0,0,303.7,108a15.372,15.372,0,0,0,12.36-5.64L314,100.31a13.659,13.659,0,0,1-10.3,4.68,11.77,11.77,0,0,1-8.87-3.65,13.525,13.525,0,0,1-3.56-9.49h26.84a12.648,12.648,0,0,0,.06-1.6,16.511,16.511,0,0,0-4.18-11.48,13.259,13.259,0,0,0-10.43-4.68,14.31,14.31,0,0,0-10.99,4.81c-2.93,3.14-4.37,7.25-4.37,12.25v.17Zm-26.78,15.91V89.85c0-7.44,4.06-12.44,10.3-12.44,5.81,0,9.68,4.1,9.68,10.52v19.3h3.12V87.28c0-3.91-1.12-7.05-3.37-9.36a11.337,11.337,0,0,0-8.74-3.53c-5.56,0-9.18,2.24-10.99,6.73V74.9h-3.12v32.32h3.12ZM252.82,74.9H249.7v32.32h3.12Zm0-7.05c2.18-1.92-1.19-5.52-3.18-3.21a2.424,2.424,0,0,0,0,3.21,2.341,2.341,0,0,0,3.18,0m-29.59,32.26c1.5,4.94,5.87,7.82,11.67,7.82,6.74,0,10.55-3.98,10.55-8.91s-2.75-7.38-9.24-10.13c-5.06-2.12-7.18-3.59-7.18-6.86,0-3.01,2.37-4.94,5.62-4.94a6.229,6.229,0,0,1,5.81,3.4l2.56-1.35a8.682,8.682,0,0,0-8.43-5.07c-5,0-8.68,3.34-8.68,7.95,0,4.81,2.68,6.86,8.36,9.36a27.683,27.683,0,0,1,6.24,3.4,5.129,5.129,0,0,1,1.81,4.23c0,3.27-2.37,5.9-7.43,5.9-4.74,0-7.8-2.31-9.05-5.84ZM193.7,94.98c0,8.28,5.06,12.96,12.99,12.96s12.99-4.68,12.99-12.96V74.91h-3.12V94.66c0,6.67-3.68,10.26-9.86,10.26s-9.86-3.59-9.86-10.26V74.91h-3.12V94.98ZM166.55,84.84h10.93a9.409,9.409,0,0,1,7.05,2.76,9.3,9.3,0,0,1,2.75,6.86,9.574,9.574,0,0,1-2.75,6.93,9.138,9.138,0,0,1-6.8,2.76H166.55Zm0-19.24h9.55a8.085,8.085,0,0,1-.06,16.17h-9.49Zm11.36,41.63a12.421,12.421,0,0,0,12.61-12.76c0-5.96-3.56-10.77-9.05-11.54,3.74-1.28,5.93-4.87,5.93-9.3a10.8,10.8,0,0,0-11.11-11.09H163.31v44.7h14.6Z" fill="#fff"/>
    <path id="Path_110" data-name="Path 110" d="M128.84,49.27c8.44-3.1,13.42-11.31,13.42-21.69A24.984,24.984,0,0,0,133.51,7.9Q124.915,0,112.24,0H72.28c.14.07.26.15.4.22V8.24Q59.6-.025,39.83,0H0V108H39.98c17.95,0,31.68-4.8,41.18-14.57C89.32,85.17,94,74.45,95.26,61.51h17.88c7.99,0,13.72,5.27,13.72,12.71s-5.73,13.17-13.57,13.17H94.38A53.006,53.006,0,0,1,86,98.52a48.754,48.754,0,0,1-13.04,9.47h45.01c9.2,0,16.74-2.94,22.77-8.99,6.18-6.04,9.2-13.79,9.2-22.93.02-13.78-7.68-24.32-21.1-26.8M72.28,54.23c0,19.83-9.05,32.07-33.79,32.07H23.25V21.69H38.34c12.52,0,21.27,2.94,26.25,8.68,5.12,5.73,7.69,13.79,7.69,23.86m47.51-22.62c0,6.66-4.67,11.47-11.31,11.47H95.66V20.46h12.97a10.833,10.833,0,0,1,11.16,11.15" fill="#fff"/>
  </g>
</svg>
