<?xml version="1.0" encoding="UTF-8"?>
<svg xmlns="http://www.w3.org/2000/svg" xmlns:xlink="http://www.w3.org/1999/xlink" viewBox="0 0 1200 454.5">
<defs>
    <style>.cls-1{fill:#646363;mix-blend-mode:screen;opacity:.3;}.cls-2{fill:url(#linear-gradient);}.cls-3{fill:#01b4fd;}.cls-4,.cls-5{fill:#f5f5f5;}.cls-6{fill:#fff;}.cls-7{fill:#8fc640;}.cls-8{fill:#32475e;}.cls-9,.cls-10{fill:#bcbec0;}.cls-11{fill:#ddd;}.cls-12{fill:#40b984;}.cls-13{fill:#56504f;}.cls-14{fill:#263264;}.cls-15{fill:#369bc2;}.cls-16{fill:#7a86b8;}.cls-17{fill:url(#_ÂÁ_Ï_ÌÌ_È_ËÂÌÚ_29);mix-blend-mode:overlay;opacity:.4;}.cls-18{fill:#787778;opacity:.2;}.cls-18,.cls-10,.cls-19,.cls-20{mix-blend-mode:multiply;}.cls-19{fill:#e3e4e5;}.cls-20{fill:#bb202e;opacity:.4;}.cls-21{fill:url(#linear-gradient-8);}.cls-22{fill:url(#linear-gradient-9);}.cls-23{fill:url(#linear-gradient-3);}.cls-24{fill:url(#linear-gradient-4);}.cls-25{fill:url(#linear-gradient-2);}.cls-26{fill:url(#linear-gradient-6);}.cls-27{fill:url(#linear-gradient-7);}.cls-28{fill:url(#linear-gradient-5);}.cls-29{opacity:.8;}.cls-30{fill:url(#linear-gradient-10);}.cls-31{fill:url(#linear-gradient-11);}.cls-32{isolation:isolate;}.cls-5{opacity:.4;}@keyframes moveleft {
	0% {
		transform: translateX( 0 );
	}
    20% {
		transform: translateX( -26% );
	}
    40% {
		transform: translateX( -54% );
	}
    60% {
		transform: translateX( -82% );
	}
    80% {
		transform: translateX( -110% );
	}
    100% {
		transform: translateX( -137% );
	}
}
#heads {
    animation: moveleft 5s infinite ease-in-out;
}</style><linearGradient id="linear-gradient" x1="974.3" y1="127" x2="1228.3" y2="127" gradientTransform="translate(903.7 -963.9) rotate(73.2)" gradientUnits="userSpaceOnUse"><stop offset=".2" stop-color="#e6e7e8"/><stop offset=".5" stop-color="#cfd0d2"/><stop offset=".7" stop-color="#bcbec0"/><stop offset=".8" stop-color="#c5c7c8"/><stop offset="1" stop-color="#dedfe1"/><stop offset="1" stop-color="#e6e7e8"/></linearGradient><linearGradient id="linear-gradient-2" x1="2621.3" x2="2875.3" gradientTransform="translate(2073.5 -2540.2) rotate(73.2)" xlink:href="#linear-gradient"/><linearGradient id="linear-gradient-3" x1="649.5" x2="903.6" gradientTransform="translate(673.1 -653) rotate(73.2)" xlink:href="#linear-gradient"/><linearGradient id="linear-gradient-4" x1="2296.5" x2="2550.6" gradientTransform="translate(1842.8 -2229.4) rotate(73.2)" xlink:href="#linear-gradient"/><linearGradient id="linear-gradient-5" x1="1303.9" x2="1558" gradientTransform="translate(1137.9 -1279.3) rotate(73.2)" xlink:href="#linear-gradient"/><linearGradient id="linear-gradient-6" x1="324.8" x2="578.8" gradientTransform="translate(442.4 -342.2) rotate(73.2)" xlink:href="#linear-gradient"/><linearGradient id="linear-gradient-7" x1="0" x2="254" gradientTransform="translate(211.8 -31.4) rotate(73.2)" xlink:href="#linear-gradient"/><linearGradient id="linear-gradient-8" x1="1971.8" x2="2225.8" gradientTransform="translate(1612.2 -1918.5) rotate(73.2)" xlink:href="#linear-gradient"/><linearGradient id="linear-gradient-9" x1="1647" x2="1901" gradientTransform="translate(1381.5 -1607.7) rotate(73.2)" xlink:href="#linear-gradient"/><linearGradient id="_ÂÁ_Ï_ÌÌ_È_ËÂÌÚ_29" x1="612.4" y1="217.4" x2="693.4" y2="217.4" gradientUnits="userSpaceOnUse"><stop offset="0" stop-color="#fff7cc"/><stop offset="1" stop-color="#fff7cc"/></linearGradient><linearGradient id="linear-gradient-10" x1="353.1" y1="329.7" x2="589.6" y2="329.7" gradientUnits="userSpaceOnUse"><stop offset=".2" stop-color="#fff"/><stop offset=".5" stop-color="#cfd0d2"/><stop offset=".7" stop-color="#bcbec0"/><stop offset=".8" stop-color="#c5c7c8"/><stop offset=".9" stop-color="#dedfe0"/><stop offset="1" stop-color="#fff"/></linearGradient><linearGradient id="linear-gradient-11" x1="393.8" y1="303.5" x2="514.7" y2="303.5" gradientUnits="userSpaceOnUse"><stop offset=".2" stop-color="#fff"/><stop offset=".7" stop-color="#cfd0d2"/><stop offset="1" stop-color="#bcbec0"/></linearGradient></defs>
    <g class="cls-32">
        <g id="heads"><g><g><circle class="cls-2" cx="1101.3" cy="127" r="127" transform="translate(660.6 1144.3) rotate(-73.2)"/><ellipse cx="1100.9" cy="125.4" rx="104.5" ry="103.4"/><g id="Txym9S.tif"><g><path class="cls-3" d="M1185,126.1c.1,47.1-38.2,85.8-85.6,85.8-48.1,0-85.8-38.5-85.9-85.6,0-46.8,37.5-85.8,85.7-85.8,47.9,0,85.7,38.5,85.8,85.7Zm-84.8,74.9c43.1-.8,75.9-36.7,73.6-78.8-2.1-40.5-36.3-72.9-79-70.7-41.1,2.2-73.4,37.6-70.3,80.1,2.9,40.1,36.5,69.8,75.7,69.3Z"/><path class="cls-6" d="M1121.7,144.2c3.8,5.4,6.5,11.3,8.3,17.5,.2,.7,0,1-.6,1.4-4,3.1-8.3,5.7-13.1,7.5-.9,.3-1.2,.8-1.2,1.7,0,4.8,0,9.6,0,14.4,0,.8-.2,1.1-1,1.3-10.1,2.3-20.1,2.5-30.1-.1-.7-.2-1-.4-1-1.2,0-2.8,0-5.6,0-8.4,0-.8,.2-1.2,1-1.5,7.7-2.8,14.6-6.9,20.8-12.2,6.4-5.4,11.7-11.8,15.9-19.2,.2-.4,.5-.8,.8-1.4Z"/><path class="cls-6" d="M1103.7,97.6c1.9-4,4.1-7.6,6.7-11,1.3-1.7,2.7-3.3,4.1-4.8,.6-.6,1.1-.7,1.8-.4,4.8,1.9,9.3,4.4,13.2,7.7,.6,.5,1,.5,1.6,.1,4.2-2.5,8.4-4.9,12.6-7.4,.6-.4,1-.4,1.5,.2,7.3,7.5,12.2,16.4,15.2,26.4,.2,.6,0,.8-.4,1-2.6,1.5-5.2,3-7.8,4.5-.7,.4-1,0-1.4-.3-3.6-3-7.4-5.6-11.5-7.8-10.8-5.7-22.3-8.6-34.6-8.3-.3,0-.6,0-1,0Z"/><path class="cls-3" d="M1076.8,108c-3.8-5.6-6.5-11.4-8.3-17.7-.2-.7,.2-.9,.6-1.3,3.9-3.2,8.2-5.8,13-7.5,.9-.3,1.3-.8,1.2-1.8,0-4.7,0-9.3,0-14,0-1.1,.4-1.5,1.4-1.8,4.2-1,8.4-1.4,12.6-1.7,5.7-.4,11.3,.3,16.9,1.7,.8,.2,1.2,.5,1.2,1.4,0,2.8,0,5.7,0,8.5,0,.8-.2,1.1-1,1.4-9.6,3.5-18,9-25.3,16.2-4.5,4.5-8.3,9.5-11.4,15-.2,.4-.5,.8-.8,1.4Z"/><path class="cls-6" d="M1072.2,136.4c-6.4,.7-12.6,0-18.8-1.4-.9-.2-1.3-.5-1.4-1.5-.7-4.9-.8-9.8,0-14.7,.2-.9,0-1.5-1-2-4.1-2.3-8.2-4.8-12.4-7.2-.7-.4-.8-.7-.6-1.5,2.9-9.9,7.9-18.6,15.1-26,.5-.6,.9-.5,1.5-.2,2.3,1.4,4.6,2.7,7,4,.9,.5,1.1,1,.9,2-.8,4.4-1.1,8.8-.9,13.2,.4,12.1,3.6,23.4,9.8,33.9,.2,.4,.4,.8,.7,1.1,0,0,0,.1,0,.3Z"/><path class="cls-3" d="M1131.3,115.6c4.8-.2,9.4,.5,14,1.6,.7,.2,1,.5,1.1,1.3,.8,5,.8,10.1,0,15.1-.2,.9,0,1.4,.9,1.9,4.2,2.4,8.3,4.8,12.5,7.2,.7,.4,.8,.7,.6,1.4-3,9.9-7.9,18.6-15.2,26-.5,.5-.8,.6-1.4,.2-2.4-1.5-4.8-2.9-7.3-4.2-.8-.4-.9-1-.7-1.8,.7-4.4,1.1-8.8,.9-13.3-.4-12.1-3.6-23.4-9.7-33.8-.2-.3-.4-.6-.6-.9-.3-.5-.2-.7,.4-.7,1.5,0,3,0,4.5,0Z"/><path class="cls-3" d="M1046.9,137.9c.4,0,.7,.4,1,.6,6.2,5.1,13,9,20.6,11.8,8.1,3,16.4,4.5,25,4.3,1.4,0,1.4,0,.8,1.2-2.7,5.4-6.2,10.2-10.3,14.6-.5,.6-1,.6-1.7,.3-4.8-1.9-9.3-4.4-13.3-7.7-.6-.5-1.1-.6-1.8-.1-4.2,2.5-8.4,4.9-12.6,7.4-.6,.4-1,.4-1.5-.2-7.3-7.3-12-16.1-15.1-25.9-.2-.7-.2-1.1,.6-1.5,2.5-1.4,5-2.9,7.5-4.3,.2-.1,.5-.3,.7-.4Z"/><path class="cls-6" d="M1099.2,138.4c-6.8,0-12.4-5.5-12.4-12.4,0-6.8,5.7-12.5,12.5-12.5,6.8,0,12.4,5.7,12.4,12.4,0,8.1-7,12.8-12.5,12.4Z"/></g></g></g><g><circle class="cls-25" cx="2748.3" cy="127" r="127" transform="translate(1830.3 2720.6) rotate(-73.2)"/><ellipse cx="2747.9" cy="125.4" rx="104.5" ry="103.4"/><g id="Txym9S.tif-2"><g><path class="cls-3" d="M2832,126.1c.1,47.1-38.2,85.8-85.6,85.8-48.1,0-85.8-38.5-85.9-85.6,0-46.8,37.5-85.8,85.7-85.8,47.9,0,85.7,38.5,85.8,85.7Zm-84.8,74.9c43.1-.8,75.9-36.7,73.6-78.8-2.1-40.5-36.3-72.9-79-70.7-41.1,2.2-73.4,37.6-70.3,80.1,2.9,40.1,36.5,69.8,75.7,69.3Z"/><path class="cls-6" d="M2768.7,144.2c3.8,5.4,6.5,11.3,8.3,17.5,.2,.7,0,1-.6,1.4-4,3.1-8.3,5.7-13.1,7.5-.9,.3-1.2,.8-1.2,1.7,0,4.8,0,9.6,0,14.4,0,.8-.2,1.1-1,1.3-10.1,2.3-20.1,2.5-30.1-.1-.7-.2-1-.4-1-1.2,0-2.8,0-5.6,0-8.4,0-.8,.2-1.2,1-1.5,7.7-2.8,14.6-6.9,20.8-12.2,6.4-5.4,11.7-11.8,15.9-19.2,.2-.4,.5-.8,.8-1.4Z"/><path class="cls-6" d="M2750.7,97.6c1.9-4,4.1-7.6,6.7-11,1.3-1.7,2.7-3.3,4.1-4.8,.6-.6,1.1-.7,1.8-.4,4.8,1.9,9.3,4.4,13.2,7.7,.6,.5,1,.5,1.6,.1,4.2-2.5,8.4-4.9,12.6-7.4,.6-.4,1-.4,1.5,.2,7.3,7.5,12.2,16.4,15.2,26.4,.2,.6,0,.8-.4,1-2.6,1.5-5.2,3-7.8,4.5-.7,.4-1,0-1.4-.3-3.6-3-7.4-5.6-11.5-7.8-10.8-5.7-22.3-8.6-34.6-8.3-.3,0-.6,0-1,0Z"/><path class="cls-3" d="M2723.8,108c-3.8-5.6-6.5-11.4-8.3-17.7-.2-.7,.2-.9,.6-1.3,3.9-3.2,8.2-5.8,13-7.5,.9-.3,1.3-.8,1.2-1.8,0-4.7,0-9.3,0-14,0-1.1,.4-1.5,1.4-1.8,4.2-1,8.4-1.4,12.6-1.7,5.7-.4,11.3,.3,16.9,1.7,.8,.2,1.2,.5,1.2,1.4,0,2.8,0,5.7,0,8.5,0,.8-.2,1.1-1,1.4-9.6,3.5-18,9-25.3,16.2-4.5,4.5-8.3,9.5-11.4,15-.2,.4-.5,.8-.8,1.4Z"/><path class="cls-6" d="M2719.2,136.4c-6.4,.7-12.6,0-18.8-1.4-.9-.2-1.3-.5-1.4-1.5-.7-4.9-.8-9.8,0-14.7,.2-.9,0-1.5-1-2-4.1-2.3-8.2-4.8-12.4-7.2-.7-.4-.8-.7-.6-1.5,2.9-9.9,7.9-18.6,15.1-26,.5-.6,.9-.5,1.5-.2,2.3,1.4,4.6,2.7,7,4,.9,.5,1.1,1,.9,2-.8,4.4-1.1,8.8-.9,13.2,.4,12.1,3.6,23.4,9.8,33.9,.2,.4,.4,.8,.7,1.1,0,0,0,.1,0,.3Z"/><path class="cls-3" d="M2778.3,115.6c4.8-.2,9.4,.5,14,1.6,.7,.2,1,.5,1.1,1.3,.8,5,.8,10.1,0,15.1-.2,.9,0,1.4,.9,1.9,4.2,2.4,8.3,4.8,12.5,7.2,.7,.4,.8,.7,.6,1.4-3,9.9-7.9,18.6-15.2,26-.5,.5-.8,.6-1.4,.2-2.4-1.5-4.8-2.9-7.3-4.2-.8-.4-.9-1-.7-1.8,.7-4.4,1.1-8.8,.9-13.3-.4-12.1-3.6-23.4-9.7-33.8-.2-.3-.4-.6-.6-.9-.3-.5-.2-.7,.4-.7,1.5,0,3,0,4.5,0Z"/><path class="cls-3" d="M2693.9,137.9c.4,0,.7,.4,1,.6,6.2,5.1,13,9,20.6,11.8,8.1,3,16.4,4.5,25,4.3,1.4,0,1.4,0,.8,1.2-2.7,5.4-6.2,10.2-10.3,14.6-.5,.6-1,.6-1.7,.3-4.8-1.9-9.3-4.4-13.3-7.7-.6-.5-1.1-.6-1.8-.1-4.2,2.5-8.4,4.9-12.6,7.4-.6,.4-1,.4-1.5-.2-7.3-7.3-12-16.1-15.1-25.9-.2-.7-.2-1.1,.6-1.5,2.5-1.4,5-2.9,7.5-4.3,.2-.1,.5-.3,.7-.4Z"/><path class="cls-6" d="M2746.2,138.4c-6.8,0-12.4-5.5-12.4-12.4,0-6.8,5.7-12.5,12.5-12.5,6.8,0,12.4,5.7,12.4,12.4,0,8.1-7,12.8-12.5,12.4Z"/></g></g></g><g><circle class="cls-23" cx="776.6" cy="127" r="127" transform="translate(430 833.4) rotate(-73.2)"/><ellipse class="cls-6" cx="776.1" cy="125.4" rx="104.5" ry="103.4"/><polygon class="cls-12" points="698.3 74.5 729.8 74.5 776.3 154.7 823.1 74.5 853.5 74.5 776.3 207.1 698.3 74.5"/><polygon class="cls-8" points="758 74.5 729.8 74.5 776.3 154.7 823.1 74.5 794 74.5 776.3 105.8 758 74.5"/></g><g><circle class="cls-24" cx="2423.6" cy="127" r="127" transform="translate(1599.7 2409.8) rotate(-73.2)"/><ellipse class="cls-6" cx="2423.1" cy="125.4" rx="104.5" ry="103.4"/><polygon class="cls-12" points="2345.3 74.5 2376.8 74.5 2423.3 154.7 2470.1 74.5 2500.5 74.5 2423.3 207.1 2345.3 74.5"/><polygon class="cls-8" points="2405 74.5 2376.8 74.5 2423.3 154.7 2470.1 74.5 2441 74.5 2423.3 105.8 2405 74.5"/></g><g><circle class="cls-28" cx="1430.9" cy="127" r="127" transform="translate(894.7 1459.8) rotate(-73.2)"/><ellipse class="cls-16" cx="1430.5" cy="125.4" rx="104.5" ry="103.4"/><path class="cls-6" d="M1458.6,165.9c.7-3.7,1.4-7.2,2.1-10.6,3.6-18.1,7.3-36.3,10.9-54.4,.2-1,.3-1.8,1.7-1.8,8.6,.1,17.2,0,25.8,.2,2,0,4.1,.5,6.1,1.1,7.4,2.4,11.4,8.1,11.4,16.6,0,9.1-2.9,17.2-9.4,23.8-4.5,4.6-9.9,6.8-16.2,7.1-4.7,.3-9.5,.2-14.3,.3-1.2,0-1.7,.3-1.9,1.6-.9,4.8-1.9,9.7-2.9,14.5-.2,1.1-.6,1.6-1.9,1.6-3.7,0-7.4,0-11.5,0Zm18.7-28.3c5.9,.3,11.4,.1,16.7-1.6,1.7-.6,3.6-1.9,4.6-3.4,3.5-5.2,4.7-11,4-17.2-.3-2.4-1.7-3.9-4.2-4.5-4.8-1.1-9.7-1.2-14.5-1-.5,0-1.2,.8-1.3,1.3-1.1,4.9-2,9.9-3,14.8-.7,3.7-1.5,7.5-2.3,11.5Z"/><path class="cls-6" d="M1364.8,148.1c-.9,4.6-1.8,8.8-2.6,13-.9,4.9-.9,4.9-5.9,4.9-2.5,0-5,0-7.5,0-.1,0-.2,0-.5-.2,.8-3.9,1.5-7.8,2.3-11.7,3.5-17.5,7-35.1,10.5-52.6,.3-1.7,.9-2.4,2.8-2.3,8.4,.2,16.7,0,25.1,.2,5.2,.2,10,1.8,13.4,6,3.5,4.2,4.2,9.2,3.8,14.5-.6,7.8-3.3,14.7-8.8,20.6-4.6,5-10.4,7.4-17,7.7-5.1,.2-10.2,0-15.4,0Zm2-9.9c4.9-.5,9.4-.9,13.9-1.3,5.6-.5,8.5-4,10-9,1.3-4.1,2.4-8.3,1.4-12.7-.4-1.9-1.5-3.3-3.5-3.9-5.3-1.4-10.7-1.5-16.3-1.1-1.8,9.1-3.7,18.2-5.6,28Z"/><path class="cls-6" d="M1420.3,81.5h13c-1.2,5.9-2.3,11.6-3.5,17.5,1.1,0,2,0,3,.1,5.3,.3,10.7,.6,16,1,.6,0,1.2,.3,1.8,.5,6.3,2.1,8.9,5.9,8.2,12.6-.5,4.1-1.3,8.2-2.1,12.2-1.4,7.1-2.9,14.2-4.3,21.3-.2,1.2-.7,1.6-1.9,1.6-3.8,0-7.5,0-11.6,0,.6-3.2,1.2-6.1,1.8-9,1.5-7.4,3-14.8,4.4-22.2,.8-4.5-.7-6.5-5.2-6.8-3.7-.3-7.4-.2-11.2-.2-.4,0-1.1,.8-1.2,1.3-1.8,8.5-3.4,16.9-5.1,25.4-.7,3.3-1.3,6.7-2,10-.1,.6-.8,1.4-1.2,1.4-3.9,.1-7.8,0-12,0,4.5-22.4,8.9-44.5,13.4-66.8Z"/></g><g><circle class="cls-26" cx="451.8" cy="127" r="127" transform="translate(199.3 522.6) rotate(-73.2)"/><ellipse class="cls-7" cx="451.3" cy="125.4" rx="104.5" ry="103.4"/><g class="cls-29"><path class="cls-6" d="M465.4,193.5c-36.7,0-66.4-29.7-66.4-66.4s29.7-66.4,66.4-66.4,35.2,7.6,47.3,19.8c-13.9-19-36.3-31.3-61.6-31.3-42.1,0-76.3,34.2-76.3,76.3s34.2,76.3,76.3,76.3,36.4-7,49.7-18.5c-10.3,6.5-22.4,10.3-35.4,10.3Z"/><path class="cls-6" d="M488.2,71.4c16,9.4,26.7,26.7,26.7,46.5,0,29.8-24.1,53.9-53.9,53.9s-50.5-20.9-53.5-47.8c0,1.1,0,2.1,0,3.2,0,33,26.7,59.7,59.7,59.7s59.7-26.7,59.7-59.7-16-47.3-38.6-55.8Z"/><path class="cls-6" d="M459.4,75.5c-20,0-36.9,13.3-42.4,31.6,6.1-13.5,19.7-23,35.5-23s38.9,17.4,38.9,38.9-17.4,38.9-38.9,38.9-6.9-.5-10.1-1.3c5.2,2.2,11,3.4,17,3.4,24.4,0,44.2-19.8,44.2-44.2s-19.8-44.2-44.2-44.2Z"/></g></g><g><circle class="cls-27" cx="127" cy="127" r="127" transform="translate(-31.4 211.8) rotate(-73.2)"/><ellipse class="cls-14" cx="126.6" cy="125.4" rx="104.5" ry="103.4"/><g id="M79h8Q.tif"><g><path class="cls-6" d="M120.7,138.5c6.2,2,12.3,3.9,18.5,5.9-3.5,12.6-9.8,22.9-22.4,27.6-12.1,4.5-24.4,4.3-36.2-1.3-10.5-5-17.5-13.3-20.9-24.4-4.5-14.7-4.4-29.5,1.5-43.8,5.9-14.4,17-22.7,32.5-24.9,8.5-1.2,16.9-.6,24.9,2.7,9.5,4,15.7,10.9,19.1,20.6,.4,1.2,.8,2.4,1.3,3.9-6.3,1.5-12.5,3-18.8,4.5-.5-1.4-.9-2.8-1.5-4-3.7-8.3-11.7-12.8-20.9-11.7-9.8,1.1-16.4,6.4-19.1,15.8-3.4,12.2-3.5,24.5,1.2,36.4,5,12.8,21.2,16.9,32.1,8.6,3.9-3,6-7.2,7.5-11.8,.4-1.3,.8-2.5,1.2-4Z"/><path class="cls-6" d="M175.6,104.7h13.7v14.3h-13.3v54.2h-18.3v-54.1h-9.9v-14.4h10.1c0-3.6,0-6.9,0-10.2,.4-11,6.5-16.1,16.9-17.3,6.4-.8,12.8,0,19.2,2.1-.8,4.1-1.6,8.3-2.4,12.6-1.6-.2-3.1-.6-4.6-.6-2.2,0-4.5-.1-6.7,.1-1.9,.2-3.4,1.5-3.7,3.4-.5,3.2-.6,6.4-.9,9.9Z"/></g></g></g><g><circle class="cls-21" cx="2098.8" cy="127" r="127" transform="translate(1369 2098.9) rotate(-73.2)"/><ellipse class="cls-7" cx="2098.3" cy="125.4" rx="104.5" ry="103.4"/><g class="cls-29"><path class="cls-6" d="M2112.4,193.5c-36.7,0-66.4-29.7-66.4-66.4s29.7-66.4,66.4-66.4,35.2,7.6,47.3,19.8c-13.9-19-36.3-31.3-61.6-31.3-42.1,0-76.3,34.2-76.3,76.3s34.2,76.3,76.3,76.3,36.4-7,49.7-18.5c-10.3,6.5-22.4,10.3-35.4,10.3Z"/><path class="cls-6" d="M2135.2,71.4c16,9.4,26.7,26.7,26.7,46.5,0,29.8-24.1,53.9-53.9,53.9s-50.5-20.9-53.5-47.8c0,1.1,0,2.1,0,3.2,0,33,26.7,59.7,59.7,59.7s59.7-26.7,59.7-59.7-16-47.3-38.6-55.8Z"/><path class="cls-6" d="M2106.4,75.5c-20,0-36.9,13.3-42.4,31.6,6.1-13.5,19.7-23,35.5-23s38.9,17.4,38.9,38.9-17.4,38.9-38.9,38.9-6.9-.5-10.1-1.3c5.2,2.2,11,3.4,17,3.4,24.4,0,44.2-19.8,44.2-44.2s-19.8-44.2-44.2-44.2Z"/></g></g><g><circle class="cls-22" cx="1774" cy="127" r="127" transform="translate(1138.4 1788.1) rotate(-73.2)"/><ellipse class="cls-14" cx="1773.6" cy="125.4" rx="104.5" ry="103.4"/><g id="M79h8Q.tif-2"><g><path class="cls-6" d="M1767.7,138.5c6.2,2,12.3,3.9,18.5,5.9-3.5,12.6-9.8,22.9-22.4,27.6-12.1,4.5-24.4,4.3-36.2-1.3-10.5-5-17.5-13.3-20.9-24.4-4.5-14.7-4.4-29.5,1.5-43.8,5.9-14.4,17-22.7,32.5-24.9,8.5-1.2,16.9-.6,24.9,2.7,9.5,4,15.7,10.9,19.1,20.6,.4,1.2,.8,2.4,1.3,3.9-6.3,1.5-12.5,3-18.8,4.5-.5-1.4-.9-2.8-1.5-4-3.7-8.3-11.7-12.8-20.9-11.7-9.8,1.1-16.4,6.4-19.1,15.8-3.4,12.2-3.5,24.5,1.2,36.4,5,12.8,21.2,16.9,32.1,8.6,3.9-3,6-7.2,7.5-11.8,.4-1.3,.8-2.5,1.2-4Z"/><path class="cls-6" d="M1822.6,104.7h13.7v14.3h-13.3v54.2h-18.3v-54.1h-9.9v-14.4h10.1c0-3.6,0-6.9,0-10.2,.4-11,6.5-16.1,16.9-17.3,6.4-.8,12.8,0,19.2,2.1-.8,4.1-1.6,8.3-2.4,12.6-1.6-.2-3.1-.6-4.6-.6-2.2,0-4.5-.1-6.7,.1-1.9,.2-3.4,1.5-3.7,3.4-.5,3.2-.6,6.4-.9,9.9Z"/></g></g></g></g></g><g id="body"><g><rect class="cls-11" x="458.8" y="327.5" width="254.2" height="5.3" transform="translate(131 825.5) rotate(-76.8)"/><path class="cls-7" d="M693.4,224.8s-18.3-23.7-45.6-17.1c-27.3,6.6-35.5-3.8-35.5-3.8l-14.2,59.3s14.5,8.7,44.7,0c24.4-7,34.5,22.1,34.5,22.1,7.9-13,10.5-38.8,16.1-60.5Z"/><path class="cls-17" d="M652.9,211.1c9.9-1.2,28,2.7,39,19.9,.5-2.1,1-4.2,1.5-6.2,0,0-18.3-23.7-45.6-17.1-27.3,6.6-35.5-3.8-35.5-3.8,0,0,1.7,11.9,40.5,7.2Z"/><g class="cls-29"><path class="cls-6" d="M652.8,254.5c-9.7,0-17.6-7.9-17.6-17.6s7.9-17.6,17.6-17.6,9.4,2,12.5,5.2c-3.7-5-9.6-8.3-16.3-8.3-11.2,0-20.3,9.1-20.3,20.3s9.1,20.3,20.3,20.3,9.7-1.9,13.2-4.9c-2.7,1.7-5.9,2.7-9.4,2.7Z"/><path class="cls-6" d="M658.8,222.1c4.2,2.5,7.1,7.1,7.1,12.3,0,7.9-6.4,14.3-14.3,14.3s-13.4-5.5-14.2-12.7c0,.3,0,.6,0,.8,0,8.7,7.1,15.8,15.8,15.8s15.8-7.1,15.8-15.8-4.3-12.6-10.2-14.8Z"/><path class="cls-6" d="M651.2,223.2c-5.3,0-9.8,3.5-11.2,8.4,1.6-3.6,5.2-6.1,9.4-6.1s10.3,4.6,10.3,10.3-4.6,10.3-10.3,10.3-1.8-.1-2.7-.4c1.4,.6,2.9,.9,4.5,.9,6.5,0,11.7-5.3,11.7-11.7s-5.3-11.7-11.7-11.7Z"/></g><path class="cls-15" d="M369.1,362.9c1.3,6.2,5.2,17.7,13.7,18,8.5,.2,11-5.8,11-5.8l-7.1-13.8-17.5,1.7Z"/><path class="cls-20" d="M389.6,379.3c3.1-1.7,4.2-4.3,4.2-4.3l-7.1-13.8-5.9,.6c1.9,6.3,5,12.2,8.9,17.5Z"/><path class="cls-15" d="M570.4,308.2s11.7,15.1,19.2,14.4c10.9-1,10-21.4,4.6-22.7-5.4-1.3-14.6-6.2-14.6-6.2l-9.2,14.5Z"/><path class="cls-20" d="M572.5,304.9l-2.1,3.3s11.7,15.1,19.2,14.4c1.7-.2,3.1-.8,4.2-1.8-2.5-9.6-12.6-12.5-21.3-15.9Z"/><path class="cls-15" d="M598,311.9c-.4-3.7-1.8-6.7-3.8-7.2-5.4-1.3-14.6-6.2-14.6-6.2l-7.5,11.8c-1.1-1.3-1.7-2.1-1.7-2.1l9.2-14.5s9.2,4.9,14.6,6.2c2.8,.7,4.4,6.5,3.8,12Z"/><path class="cls-30" d="M589.6,295l-18.3,16.6-2.8,2.6c-10-11.2-20.4-20.4-30.8-23.2,0,0-2.4,90.2-52.4,144.4l-22.3-1.3-5.8-50.6-.9,50.6-22.3,1.3s-30.4-20.8-49.2-69.1l-17.8,3.5s-29.5-52.2-2.2-100.4c14.3-25.3,39.1-41.7,82.9-44.8,56.1-4.1,104.4,19.1,142.1,70.5Z"/><path class="cls-18" d="M456.3,374.9c-4.2,1.2-5.8,51-5.2,59.4l5.2-.3,.9-50.6,5.8,50.6,4.2,.2c2.1-15.7-8.6-60-10.9-59.3Z"/><path class="cls-4" d="M439.4,435l-5.4,.3s-28.9-19.8-47.8-65.5c30.4,46.5,48.9,59.7,53.2,65.2Zm42.4,.1l3.4,.2c46.2-50.1,51.8-130.8,52.4-142.8-3.1,28.5-22.9,104.9-55.8,142.6Zm-112.7-163.5c18.9-43.5,107-35.4,126.4-33.3,41.9,4.6,80.4,42.2,91.9,58.6l2.3-2c-37.6-51.4-85.9-74.6-142.1-70.5-43.8,3.2-68.6,19.6-82.9,44.8-27.2,48.3,2.2,100.4,2.2,100.4l3.1-.6c-7.3-19.2-23.3-45.7-.9-97.4Z"/><path class="cls-15" d="M524,243h-141.5c-5.5,0-9.9-4.5-9.9-9.9h0c0-5.5,4.5-9.9,9.9-9.9h141.5c5.5,0,9.9,4.5,9.9,9.9h0c0,5.5-4.5,9.9-9.9,9.9Z"/><path class="cls-20" d="M533.9,233.1c0,2.7-1.1,5.2-2.9,7-1.8,1.8-4.3,2.9-7,2.9h-141.5c-5.5,0-9.9-4.5-9.9-9.9s.2-2.2,.5-3.2c1.3,3.9,5,6.8,9.4,6.8h141.5c2.7,0,5.2-1.1,7-2.9,1.1-1.1,1.9-2.4,2.4-3.9,.3,1,.5,2.1,.5,3.2Z"/><polygon class="cls-15" points="434 435.4 435.7 440.9 428.3 446 456.7 445 456.3 434 434 435.4"/><g><path class="cls-9" d="M513.5,306.1c1.2,20.4,12,28,20.1,20.2,2-2,4.3,6-3.7,11.8-7.6,5.5-24.5,4.1-23.3-31.6,0,0,6.9-.9,6.9-.4Z"/><path class="cls-10" d="M519.5,340.1c.9-.6,1.8-1.3,2.5-2.1,2.4-2.5,3.1-5.7,3.1-9-5.7-1.5-10.7-9.3-11.5-22.9,0-.5-6.9,.4-6.9,.4-.8,23,6,31.8,12.9,33.6Z"/><path class="cls-9" d="M525,237.7c-7.4,.7-19.2,18.7-15.2,36.3,.6,2.6,4.6,1.1,4.7-1.3,.8-13.6,9.4-27.3,16.8-29.7,5.3-1.7-4.2-5.5-6.2-5.3Z"/><path class="cls-10" d="M514.5,247c-4.2,7-6.9,17.1-4.7,27,.6,2.6,4.6,1.1,4.7-1.3,.4-6.6,2.6-13.1,5.6-18.4-1.6-2.7-3.3-5.2-5.6-7.3Z"/><path class="cls-5" d="M523.7,240.6c2.1,.8,4.1,1.9,5.9,3.1,.6-.3,1.1-.6,1.7-.8,5.3-1.7-4.2-5.5-6.2-5.3-1.3,.1-2.8,.8-4.2,1.9,1,.3,1.9,.7,2.9,1.1Z"/><path class="cls-5" d="M533.6,326.3c-1.1,1-2.2,1.8-3.3,2.3,0,3.8-.6,7.6-2.8,10.9,.9-.4,1.7-.8,2.4-1.4,8-5.8,5.7-13.7,3.7-11.8Z"/></g><g><path class="cls-13" d="M409.4,306.5c1.2,35.7-15.7,37.1-23.3,31.6-1.7-1.2-3.3-2.3-4-3.2-.4-3-.3-5.7-.5-9.1,8.1,7.8,19.7,.7,20.9-19.7,0-.5,6.9,.4,6.9,.4Z"/><path class="cls-9" d="M409.4,306.5c1.2,35.7-15.7,37.1-23.3,31.6-1.7-1.2-3.3-2.3-4-3.2-.4-3-.3-5.7-.5-9.1,8.1,7.8,19.7,.7,20.9-19.7,0-.5,6.9,.4,6.9,.4Z"/><path class="cls-9" d="M384.7,243c7.3,2.4,16,16.1,16.8,29.7,.1,2.4,4.1,3.8,4.7,1.3,4-17.6-7.8-35.6-15.2-36.3-2-.2-11.5,3.6-6.2,5.3Z"/><path class="cls-10" d="M401.5,247c4.2,7,6.9,17.1,4.7,27-.6,2.6-4.6,1.1-4.7-1.3-.4-6.6-2.6-13.1-5.6-18.4,1.6-2.7,3.3-5.2,5.6-7.3Z"/><path class="cls-5" d="M392.3,240.6c-2.1,.8-4.1,1.9-5.9,3.1-.6-.3-1.1-.6-1.7-.8-5.3-1.7,4.2-5.5,6.2-5.3,1.3,.1,2.8,.8,4.2,1.9-1,.3-1.9,.7-2.9,1.1Z"/></g><path class="cls-20" d="M445.8,445.4l10.9-.4-.5-11-6.2,.4c-.1,4.3-1.7,8-4.3,11Z"/><polygon class="cls-15" points="485.3 435.4 483.5 440.9 490.9 446 462.5 445 463 434 485.3 435.4"/><path class="cls-20" d="M469,434.4l-6-.4-.5,11,9.1,.3c-1.7-3.4-2.7-7.2-2.7-10.9Z"/><path class="cls-31" d="M400.5,246.4c6.8-8,96.6-7.2,106.3,0,9.7,7.2,10.4,108.8,2.8,115.6-7.6,6.8-105.4,4.8-110.3-.7-9.1-10.2-5.6-106.9,1.2-114.9Z"/><path class="cls-18" d="M509.6,361c-7.6,8.3-105.5,5.9-110.3-.8-4.2-5.8-5.7-34.6-5.4-64.7,.2,25.3,1.8,47.4,5.4,52.4,4.8,6.7,102.7,9.2,110.3,.8,3.2-3.5,4.9-27.6,5.1-55,.3,32.1-1.4,63.3-5.1,67.4Z"/><path class="cls-1" d="M453.5,247.4c-24.1,0-47.9,.9-51.3,2.9-3.5,2.1-6.1,16.4-6.5,30.3-.4-15.6,2.4-34.6,6.5-37.1,6.7-4,95.1-3.6,104.7,0,5.6,2.1,8.2,20.8,7.8,36.4-.4-13.8-3-27.9-7.8-29.7-4.8-1.8-29.3-2.8-53.4-2.9"/><path class="cls-19" d="M413.4,282.1c-6.3,7.2-7.5,49.9,0,53.9,7.5,4,77.5,4.5,80,0,2.6-4.5,5.8-47.9,0-53.9-5.8-6-73.8-7.2-80,0Z"/><path class="cls-19" d="M380.5,292.6c0-.2-.5-3.2-1.7,2.3-5.9,26.1-1.1,61,2.7,71.9,1.1-.3,2.1-.4,3.3-.6-2.4-15.4-4.5-61.3-4.3-73.6Z"/><path class="cls-18" d="M571.3,311.5l-2.8,2.6c-10-11.2-20.4-20.4-30.8-23.2-.1,0,5.9-3.7,21.3,7.1,3.4,2.4,9.2,8.2,12.3,13.5Z"/><path class="cls-6" d="M459,327.6c-10.5,0-19.1-8.5-19.1-19.1s8.5-19.1,19.1-19.1,10.1,2.2,13.6,5.7c-4-5.4-10.4-9-17.7-9-12.1,0-21.9,9.8-21.9,21.9s9.8,21.9,21.9,21.9,10.4-2,14.3-5.3c-2.9,1.9-6.4,2.9-10.2,2.9Z"/><path class="cls-6" d="M465.5,292.6c4.6,2.7,7.7,7.7,7.7,13.3,0,8.5-6.9,15.5-15.5,15.5s-14.5-6-15.4-13.7c0,.3,0,.6,0,.9,0,9.5,7.7,17.1,17.1,17.1s17.1-7.7,17.1-17.1-4.6-13.6-11.1-16Z"/><path class="cls-6" d="M457.3,293.8c-5.7,0-10.6,3.8-12.2,9.1,1.7-3.9,5.6-6.6,10.2-6.6s11.2,5,11.2,11.2-5,11.2-11.2,11.2-2-.1-2.9-.4c1.5,.6,3.2,1,4.9,1,7,0,12.7-5.7,12.7-12.7s-5.7-12.7-12.7-12.7Z"/></g></g></g></svg>