<?xml version="1.0" encoding="UTF-8"?>
<svg xmlns="http://www.w3.org/2000/svg" viewBox="0 0 854 165">
  <defs>
    <style>
      .cls-1 {
        stroke-width: .5px;
      }

      .cls-1, .cls-2 {
        fill: #020202;
        stroke: #bfb788;
      }

      .cls-1, .cls-2, .cls-3 {
        stroke-miterlimit: 10;
      }

      .cls-2, .cls-3 {
        stroke-width: .75px;
      }

      .cls-4 {
        stroke-width: 0px;
      }

      .cls-4, .cls-3 {
        fill: #bfb788;
      }

      .cls-3 {
        stroke: #020202;
      }
    </style>
  </defs>
  <g id="ninja">
    <path class="cls-1" d="m14.93,152.44c-1-2-5,1-5,1l2,7h10s-1-3-2.75-3.79c-1.25-.21-3.25-2.21-4.25-4.21Z"/>
  </g>
  <g id="Layer_8" data-name="Layer 8">
    <path class="cls-2" d="m56.9,119.1s-.81,4.06-2.31,6.77c0,0,2.48,4.49,6.48,10.49,1.05,1.57,4,5,4,8s-5.19,9.34-7.19,11.5l-5.4-.32s-6.67-5.94-8.54-6.56-4.87-.7-4.87-.7c0,0-4,5.08-8,8.08s-13,0-13,0c0,0-6.45-3.75-2-7,0,0,3.68.05,4-1s-2.7-3.26-3.81-4.67c-4.19-5.33-3.63-15.8-1.46-22.97,2.03-6.73,7.34-10.2,17.95-10.96,13.6-.99,21.99,2.57,24.16,9.34Z"/>
    <path class="cls-1" d="m57.56,155.86h-5v6h10s-.25-1.21-2-2c-1.25-.21-1-4-3-4Z"/>
    <path class="cls-2" d="m53.75,133.59s-5.55,1.67-18.18,1.68c-12.64,0-18.19-1.65-18.19-1.65,0,0-.5.41-.5,1.67,0,0-.84,1.5.21,2.35,0,0,7.4,1.73,18.47,1.72,11.07,0,18.49-1.5,18.49-1.5,0,0,.85-1.13.34-2.85,0,0,.3-.8-.64-1.42Z"/>
    <path class="cls-2" d="m24.74,135.82s-4.2,3.33-6.72,9.94c0,0,1.07.46,1.84,1.99,0,0,1.16-1.41.5.71,0,0,.27.34.63,1.32,0,0,1.71-7.89,6.29-13.45l-2.54-.5Z"/>
    <path class="cls-2" d="m25.45,137.2s1.83,1.6,2.67,7.96c0,0,.65-1.09,2.23-2.01,0,0-1.12-2.09.89-.49,0,0,.69-.2,1.4-.32,0,0-1.03-3.59-5.36-6.3l-1.83,1.15Z"/>
    <path class="cls-2" d="m26.16,114.9c1.34-1.47,18.94-1.32,20.84,0,1.9,1.32,2.04,19.92.55,21.16-1.49,1.24-20.68.88-21.63-.12-1.78-1.87-1.1-19.58.24-21.04Z"/>
    <g>
      <path class="cls-2" d="m51.55,69.85c-5.44-3.12-11.3-3.76-12.96-3.88-.19-.01-.32-.02-.37-.02-.07,0-.21-.02-.4-.03-1.74-.13-7.89-.35-13.89,2.16-7.92,3.3-12.49,10-13.22,19.39-.79,10.14,1.92,17.4,8.05,21.57,5.13,3.49,11.38,3.94,15.12,4.22l1.31.09c5.15.37,14.74,1.07,21.13-6.16,3.3-3.73,5.24-9.11,5.77-15.98.74-9.58-2.9-16.96-10.53-21.34Z"/>
      <path class="cls-2" d="m56.74,99.61c-6.57.74-10.58-.77-10.58-.77l11.43-2.12c.61-7.88-8.14-10.66-8.14-10.66,4.42-.68,8.02.07,8.02.07-2.2-2.81-6.02-3.98-6.02-3.98,2.28-.05,4.64.63,4.64.63-1.01-1.14.13-1.65.13-1.65-1.19-4.62-5.65-9.35-5.66-9.35-5.97-3.42-12.52-3.65-12.52-3.65,0,0-23.56-2.63-25.28,19.46-1.72,22.09,14.47,22.94,21.94,23.48,5.11.37,14.28,1.19,20.12-5.41,1.8-3.38,1.92-6.06,1.92-6.06Z"/>
      <path class="cls-2" d="m21.12,102.89c2.82,1.01,8.34,1.72,8.34,1.72-3.93-1.2-7.14-3.58-7.14-3.58,1.49.41,3.87.72,3.87.72-6.05-2.62-7.68-5.86-7.68-5.86.36-2.35,1.55-3.98,1.55-3.98l29.27.36c-11.78-5.17-20.85-5.75-20.85-5.75,2.85-.66,7.7-.85,7.7-.85-6.92-1.25-11.88-1.11-11.88-1.11,3.44-.8.06-1.65.06-1.65,6.74-2.16,17.86-2.1,17.86-2.1-8.9-1.77-15.02-1.86-15.02-1.86,7.13-4.47,13.86-10.61,13.86-10.61,0,0-25.58-5.21-28,19-2,20,16.08,24.76,22.82,25.72-12.17-3.54-14.77-10.18-14.77-10.18Z"/>
      <path class="cls-4" d="m30.6,90.82s.1,0,.3-.02c.19,0,.48-.04.84-.04.72-.02,1.74-.02,2.94.05,1.21.07,2.6.2,4.09.42.74.11,1.5.22,2.27.37.77.14,1.55.3,2.33.47.78.18,1.55.36,2.31.56.76.2,1.5.41,2.22.62,1.43.43,2.76.9,3.88,1.34,1.13.44,2.05.87,2.69,1.19.32.15.57.3.74.39.17.1.26.15.26.15,2.08,1.18,2.81,4.5,1.64,7.42-.85,2.1-2.46,3.42-4.06,3.55,0,0-.1,0-.3.02-.19,0-.48.04-.84.04-.72.02-1.74.02-2.94-.05-1.21-.07-2.6-.21-4.08-.42-.74-.1-1.5-.23-2.27-.37-.77-.13-1.55-.3-2.33-.46-.78-.18-1.55-.35-2.31-.55-.76-.19-1.5-.41-2.22-.62-1.43-.43-2.76-.9-3.88-1.34-1.12-.44-2.05-.87-2.69-1.2-.32-.15-.57-.3-.74-.39-.17-.1-.26-.15-.26-.15-2.08-1.19-2.81-4.51-1.63-7.43.85-2.09,2.45-3.4,4.05-3.54Z"/>
    </g>
    <path class="cls-2" d="m61.38,122.32l-7.19,1.19s4.51.72,5.19,4.28,0,7.28,0,7.28c0,0,2.97-.45,3.83-2.08s1.86-3.64,1.24-7.1c-.36-2.04-3.07-3.57-3.07-3.57Z"/>
    <path class="cls-2" d="m51.63,113.61l9.75,8.71-7.19,1.19s-5.38-3.85-5.25-5.01,2.69-4.9,2.69-4.9Z"/>
    <path class="cls-2" d="m23.88,110.23s-7.84,2.51-11.83,6.82,0,15.94,0,15.94c0,0,2.81-2.84,5.91-2.74l3.1.1s-3.2-7.07-3.1-9.03,8.6-5.75,8.6-5.75l-2.69-5.34Z"/>
    <path class="cls-2" d="m23.56,110.86c1.39.15,3.6,3.98,2.86,7.71-.11.54-.85.24-.88-.27-.15-2.9-1.77-5.8-3.14-6.31-1-.37.78-1.17,1.16-1.13Z"/>
    <rect class="cls-2" x="22.06" y="110.36" width="27" height="3" rx="1.07" ry="1.07" transform="translate(4.9 -1.44) rotate(2.49)"/>
    <g>
      <path class="cls-3" d="m19.74,131.51h0c.81.71,1.64,1.4,2.5,2.06.35.27.69.53,1.04.79.93.69,1.85,1.33,2.72,1.91.4.27.8.53,1.17.77,1.17.75,2.2,1.37,2.96,1.81.7.41,1.17.67,1.32.75.03.02.06.03.06.03,1.03.56,1.42,1.84.87,2.88-.52.97-1.69,1.37-2.69.96-.06-.03-.13-.06-.19-.09-.16-.09-2.18-1.17-4.86-2.91-.38-.24-.77-.5-1.17-.77-.85-.57-1.74-1.19-2.64-1.86-.35-.25-.7-.52-1.04-.78-.81-.62-1.61-1.27-2.4-1.95-.31-.27-.61-.53-.91-.8-.1-.09-.2-.18-.3-.27-.09-.08-.16-.18-.24-.27,1.69-2.02,3.79-2.26,3.79-2.26Z"/>
      <path class="cls-3" d="m30.13,138.85l-6.66.85c.4.27.79.53,1.17.77l6.81-.87c-.15-.09-.62-.34-1.32-.75Z"/>
      <path class="cls-3" d="m34.32,143.58c-1.58,2.68-3.42,4.48-4.86,3.68-1.52-.84-.72-3.35.86-6.03,1.58-2.68,3.32-4.61,4.86-3.68,1.59.96.72,3.35-.86,6.03Z"/>
      <path class="cls-3" d="m31.77,143.32l1.33-2.26c.13-.23.42-.31.65-.18,2.78,1.53,7.58,4.07,13.91,6.95,1.22.56,2.51,1.13,3.84,1.71,5.18,2.25,11.17,4.62,17.76,6.85,3.12,1.05,6.38,2.08,9.75,3.04,1.72.49,3.47.97,5.25,1.42.99.25,1.21,1.57.35,2.12-.43.27-.92.54-1.47.79h-.02c-1.09.49-2.31.59-3.46.27-8.39-2.31-16.14-5.01-22.92-7.7-11.92-4.73-20.87-9.4-25.14-11.76-.24-.13-.32-.44-.18-.67l.33-.56Z"/>
    </g>
    <path class="cls-2" d="m26.06,141.36c1.09-.67-2.01-4.91-1-5,3.03-.28,1,3,4,1,1.98-1.32-5-8-8-7-5,1-9.31.65-9,6,3.88,2.78,8.69,8.15,14,5Z"/>
    <path class="cls-2" d="m42.06,126.36c1,2,4.29,1.03,4,2-.88,2.91.39,6,4,6,1,0,8.8,2.16,9-1,.95-5.01-.13-7.35-4.88-9.84-4.12-2.16-11.12-3.16-12.12,2.84Z"/>
    <path class="cls-2" d="m50.1,111.86c-1.39.15-3.6,3.98-2.86,7.71.11.54.85.24.88-.27.15-2.9,1.77-5.8,3.14-6.31,1-.37-.78-1.17-1.16-1.13Z"/>
    <path class="cls-2" d="m834.01,119.46s-2.45,8.18-3.95,10.89c0,0,2.9,1.9,8,7,2,2,4.11,4.37,4.11,7.37s-5.19,9.34-7.19,11.5l-5.4-.32s-6.67-5.94-8.54-6.56-4.87-.7-4.87-.7c0,0-4,5.08-8,8.08s-13,0-13,0c0,0-6.45-3.75-2-7,0,0,3.68.05,4-1s-2.7-3.26-3.81-4.67c-4.19-5.33-3.63-15.8-1.46-22.97,2.03-6.73,7.34-10.2,17.95-10.96,13.6-.99,21.99,2.57,24.16,9.34Z"/>
    <g>
      <path class="cls-2" d="m828.35,71.26c-5.11-3.71-10.9-4.99-12.55-5.3-.19-.03-.32-.06-.37-.06-.07-.02-.2-.04-.4-.08-1.73-.32-7.85-1.22-14.11.61-8.27,2.4-15.06,11.36-16.21,18.08s1.07,17.26,6.77,22.09c4.76,4.04,10.97,5.19,14.67,5.87l1.3.24c5.11.94,14.63,2.7,21.77-3.78,3.69-3.35,6.19-8.48,7.44-15.26,1.75-9.45-1.12-17.2-8.3-22.4Z"/>
      <path class="cls-2" d="m830.61,101.48c-6.4.05-10.1-1.87-10.1-1.87l11.22-.92c1.44-7.77-6.69-11.44-6.69-11.44,4.32-.21,7.71.9,7.71.9-1.82-3.03-5.36-4.58-5.36-4.58,2.2.18,4.39,1.11,4.39,1.11-.85-1.24.3-1.63.3-1.63-.65-4.71-4.44-9.88-4.44-9.89-5.37-4.02-11.65-4.93-11.65-4.93,0,0-22.39-5.06-26.41,16.72-4.02,21.78,11.46,24.31,18.59,25.63,4.88.9,13.62,2.67,19.94-3.29,2.09-3.17,2.5-5.83,2.5-5.83Z"/>
      <path class="cls-2" d="m793.9,100.12c2.6,1.48,7.92,3.13,7.92,3.13-3.66-1.85-6.42-4.75-6.42-4.75,1.39.66,3.69,1.37,3.69,1.37-5.52-3.62-6.56-7.09-6.56-7.09.75-2.26,2.2-3.65,2.2-3.65l28.78,5.38c-10.72-7.12-19.56-9.24-19.56-9.24,2.92-.16,7.73.48,7.73.48-6.61-2.42-11.51-3.13-11.51-3.13,3.53-.2.34-1.61.34-1.61,7.01-.97,17.96.99,17.96.99-8.47-3.27-14.48-4.41-14.48-4.41,7.79-3.18,15.47-8.08,15.47-8.08,0,0-24.31-9.52-30.84,13.92-5.4,19.36,11.59,27.15,18.08,29.25-11.39-5.57-12.81-12.56-12.81-12.56Z"/>
      <path class="cls-4" d="m805.39,89.92s.1,0,.3,0c.19.01.48.01.84.05.72.05,1.73.16,2.92.36,1.19.2,2.57.48,4.02.85.72.19,1.47.39,2.22.61.75.22,1.51.47,2.26.72.75.26,1.5.52,2.24.8.73.28,1.45.57,2.14.86,1.38.58,2.64,1.19,3.71,1.75,1.07.56,1.94,1.08,2.55,1.47.31.19.54.36.7.46.16.11.24.17.24.17,1.94,1.4,2.32,4.78.83,7.55-1.07,2-2.81,3.14-4.42,3.1,0,0-.1,0-.3,0-.19-.01-.48-.02-.84-.05-.72-.05-1.73-.17-2.92-.37-1.19-.2-2.57-.48-4.02-.85-.73-.18-1.47-.39-2.22-.61-.75-.22-1.51-.47-2.27-.71-.75-.26-1.51-.52-2.24-.8-.73-.27-1.45-.57-2.14-.86-1.38-.58-2.65-1.19-3.71-1.75-1.07-.56-1.94-1.09-2.55-1.48-.3-.19-.53-.36-.7-.47-.16-.11-.24-.17-.24-.17-1.94-1.4-2.31-4.79-.82-7.56,1.07-1.99,2.8-3.12,4.41-3.09Z"/>
    </g>
    <path class="cls-1" d="m791.68,153.22c-1-2-5,1-5,1l2,7h10s-1-3-2.75-3.79c-1.25-.21-3.25-2.21-4.25-4.21Z"/>
    <path class="cls-1" d="m834.68,156.22h-5v6h10s-.25-1.21-2-2c-1.25-.21-1-4-3-4Z"/>
    <path class="cls-2" d="m830.86,129.96s-5.55,5.67-18.18,5.68c-12.64,0-18.19-1.65-18.19-1.65,0,0-.5.41-.5,1.67,0,0-.84,1.5.21,2.35,0,0,7.41,1.16,18.47,1.72,12.39.63,18.49-4.5,18.49-4.5,0,0,.85-1.13.34-2.85,0,0,.3-1.8-.64-2.42Z"/>
    <path class="cls-2" d="m801.86,136.18s-4.2,3.33-6.72,9.94c0,0,1.07.46,1.84,1.99,0,0,1.16-1.41.5.71,0,0,.27.34.63,1.32,0,0,1.71-7.89,6.29-13.45l-2.54-.5Z"/>
    <path class="cls-2" d="m802.56,137.57s1.83,1.6,2.67,7.96c0,0,.65-1.09,2.23-2.01,0,0-1.12-2.09.89-.49,0,0,.69-.2,1.4-.32,0,0-1.03-3.59-5.36-6.3l-1.83,1.15Z"/>
    <path class="cls-2" d="m803.27,115.27c1.34-1.47,18.94-1.32,20.84,0,1.9,1.32,4.04,17.92,2.55,19.16-1.49,1.24-22.68,2.88-23.63,1.88-1.78-1.87-1.1-19.58.24-21.04Z"/>
    <path class="cls-2" d="m828.74,113.97l9.75,8.71-7.19,1.19s-5.38-3.85-5.25-5.01,2.69-4.9,2.69-4.9Z"/>
    <path class="cls-2" d="m830.11,112.84l-2.9,3.4s.48,2.46,3.85,1.11c5-2,10,5,10,5,0,0-.56-2.46-.9-4.28s-.31-3.72-3.43-5.33c-2.67-1.39-6.62.1-6.62.1Z"/>
    <path class="cls-2" d="m824.15,128.18c2.09.78,3.85-2.17,4.29-1.26,1.34,2.73,4.37,4.13,7.01,1.67.73-.68,7.92-4.41,5.91-6.86-2.71-4.32-5.09-5.3-10.27-3.89-4.49,1.22-10.3,5.25-6.95,10.33Z"/>
    <path class="cls-2" d="m800.99,110.6s-7.84,2.51-11.83,6.82,0,15.94,0,15.94c0,0,2.81-2.84,5.91-2.74l3.1.1s-3.2-7.07-3.1-9.03,8.6-5.75,8.6-5.75l-2.69-5.34Z"/>
    <path class="cls-2" d="m800.67,111.22c1.39.15,3.6,3.98,2.86,7.71-.11.54-.85.24-.88-.27-.15-2.9-1.77-5.8-3.14-6.31-1-.37.78-1.17,1.16-1.13Z"/>
    <rect class="cls-2" x="799.18" y="110.72" width="27" height="3" rx="1.07" ry="1.07" transform="translate(5.65 -35.22) rotate(2.49)"/>
    <path class="cls-2" d="m827.21,112.22c-1.39.15-3.6,3.98-2.86,7.71.11.54.85.24.88-.27.15-2.9,1.77-5.8,3.14-6.31,1-.37-.78-1.17-1.16-1.13Z"/>
    <g>
      <path class="cls-3" d="m793.57,140.29h0c.92-.57,1.84-1.16,2.72-1.78.36-.25.71-.5,1.06-.76.93-.68,1.82-1.37,2.63-2.03.38-.31.74-.6,1.08-.89,1.07-.89,1.96-1.69,2.61-2.28.6-.54.98-.92,1.11-1.04.03-.03.05-.05.05-.05.84-.82,2.18-.81,3.01.03.77.79.81,2.02.12,2.85-.04.05-.09.11-.15.16-.13.13-1.77,1.73-4.22,3.77-.34.29-.71.58-1.08.89-.79.64-1.65,1.3-2.56,1.97-.35.26-.7.51-1.06.76-.83.59-1.69,1.16-2.57,1.71-.34.21-.69.42-1.04.63-.11.07-.23.14-.34.2-.11.06-.22.11-.33.15-1.42-2.21-1.03-4.29-1.03-4.29Z"/>
      <path class="cls-3" d="m803.67,132.55l-1.16,6.61c.38-.3.74-.6,1.08-.89l1.19-6.76c-.13.12-.51.49-1.11,1.04Z"/>
      <path class="cls-3" d="m809.43,129.95c2.09,2.3,3.26,4.59,2.07,5.73-1.26,1.2-3.42-.31-5.51-2.61-2.09-2.3-3.42-4.54-2.07-5.73,1.39-1.23,3.42.3,5.51,2.61Z"/>
      <path class="cls-3" d="m808.43,132.31l-1.76-1.94c-.18-.2-.17-.5.02-.68,2.29-2.2,6.13-6.03,10.77-11.22.9-1,1.82-2.06,2.77-3.16,3.68-4.28,7.73-9.29,11.81-14.93,1.93-2.67,3.88-5.47,5.79-8.41.98-1.5,1.95-3.03,2.92-4.59.53-.87,1.86-.69,2.12.3.13.49.25,1.03.32,1.63v.02c.14,1.18-.13,2.38-.77,3.38-4.7,7.33-9.58,13.93-14.16,19.6-8.06,9.98-15.17,17.13-18.7,20.51-.2.19-.51.18-.7-.03l-.44-.48Z"/>
    </g>
    <path class="cls-2" d="m803.18,141.72c1.09-.67-2.01-4.91-1-5,3.03-.28,1,3,4,1,1.98-1.32-5-8-8-7-5,1-9.31.65-9,6,3.88,2.78,8.69,8.15,14,5Z"/>
    <path class="cls-2" d="m113.06,68.36c1,2,4.29,1.03,4,2-.88,2.91.39,6,4,6,1,0,8.8,2.16,9-1,.95-5.01-.13-7.35-4.88-9.84-4.12-2.16-11.12-3.16-12.12,2.84Z"/>
    <path class="cls-2" d="m156.9,73.1s1.67,12.55.16,15.26c0,0,4,1,7,4,1.34,1.34,3.41,4.06,4,7,1,5-12.01,11.84-14,14l-1.59-3.82s-1.67-2.94-3.54-3.56-6.87-1.7-6.87-1.7c0,0-4,5.08-8,8.08s-12,6-12,6c0,0-6-3-2-7,1-2,2.68-5.95,3-7s-3-6.07-3.81-7.67c-3.19-6.33-1.19-15.33-.46-19.97,1.09-6.95,6.34-10.2,16.95-10.96,13.6-.99,18.99.57,21.16,7.34Z"/>
    <path class="cls-1" d="m119.56,115.86c-1-2-4,2-4,2l1,2,6,7s2-7,.25-7.79c-1.25-.21-2.25-1.21-3.25-3.21Z"/>
    <path class="cls-1" d="m153.43,112.95c-.68-2.13-2.53-4.76-2.53-4.76l-4.71,1.84,3.38,10.83s1-2,1.98-3.83c1.02-1.17,2.5-2.18,1.89-4.08Z"/>
    <path class="cls-2" d="m156.75,89.59s-5.55,1.67-18.18,1.68c-12.64,0-18.19-1.65-18.19-1.65,0,0-2.31-.52-2.31.74,0,0-.05,2.14,1,3,0,0,8.43,2.01,19.5,2.01,11.07,0,21.5-5.01,21.5-5.01,0,0-2.16-.63-2.68-2.34,0,0,.3,2.2-.64,1.58Z"/>
    <path class="cls-2" d="m134.74,91.82s-4.2,3.33-6.72,9.94c0,0,1.07.46,1.84,1.99,0,0,1.16-1.41.5.71,0,0,.27.34.63,1.32,0,0,1.71-7.89,6.29-13.45l-2.54-.5Z"/>
    <path class="cls-2" d="m135.45,93.2s1.83,1.6,2.67,7.96c0,0,.65-1.09,2.23-2.01,0,0-1.12-2.09.89-.49,0,0,.69-.2,1.4-.32,0,0-1.03-3.59-5.36-6.3l-1.83,1.15Z"/>
    <path class="cls-2" d="m135.16,69.9c1.34-1.47,17-1.87,18.91-.55,1.9,1.32,3.49,19.76,2,21-1.49,1.24-20.19,1.59-21.14.59-1.78-1.87-1.1-19.58.24-21.04Z"/>
    <g>
      <path class="cls-3" d="m104.09,83.74h.01c.59.9,1.22,1.79,1.87,2.64.26.35.53.69.8,1.03.72.9,1.44,1.76,2.13,2.55.32.36.63.72.93,1.05.93,1.03,1.76,1.9,2.38,2.52.57.57.95.95,1.08,1.07.03.03.05.04.05.05.85.81.89,2.15.09,3.01-.76.8-1.99.88-2.84.22-.05-.04-.11-.09-.16-.14-.13-.12-1.79-1.7-3.93-4.08-.3-.33-.61-.68-.93-1.05-.67-.77-1.36-1.6-2.06-2.48-.27-.34-.54-.68-.8-1.03-.62-.81-1.22-1.65-1.81-2.51-.23-.34-.45-.67-.67-1.01-.07-.11-.14-.22-.22-.34-.06-.1-.11-.21-.16-.32,2.16-1.51,4.25-1.19,4.25-1.19Z"/>
      <path class="cls-3" d="m112.2,93.54l-6.65-.92c.32.36.63.71.93,1.05l6.8.94c-.13-.12-.51-.5-1.08-1.07Z"/>
      <path class="cls-3" d="m115.01,99.19c-2.22,2.18-4.47,3.43-5.65,2.28-1.25-1.21.18-3.42,2.4-5.6,2.22-2.18,4.4-3.58,5.65-2.28,1.28,1.34-.18,3.43-2.4,5.6Z"/>
      <path class="cls-3" d="m112.62,98.28l1.88-1.84c.19-.18.49-.19.68,0,2.28,2.21,6.25,5.9,11.62,10.34,1.04.86,2.13,1.74,3.26,2.65,4.41,3.52,9.58,7.37,15.36,11.25,2.74,1.83,5.61,3.67,8.62,5.48,1.53.92,3.1,1.84,4.7,2.74.89.5.76,1.83-.22,2.13-.48.15-1.02.28-1.62.38h-.02c-1.18.18-2.38-.04-3.41-.64-7.5-4.42-14.28-9.05-20.12-13.42-10.28-7.68-17.69-14.52-21.19-17.92-.2-.19-.2-.51,0-.7l.47-.46Z"/>
    </g>
    <path class="cls-2" d="m101.91,91.66c.42,1.21,1.22.59,2.1,1.1,1.06.6.06,1.6,1.17,2.69,1.69,1.67,7.89-1.17,7.55-4.31.1-5.1,1.37-9.23-3.93-10.08-3.55,3.19-8.82,4.74-6.89,10.6Z"/>
    <g>
      <path class="cls-2" d="m144.48,21.89c-6.44-1.01-12.33.43-13.98.9-.19.05-.32.09-.37.11-.07.02-.21.05-.4.11-1.72.49-7.73,2.43-12.55,6.86-6.36,5.84-8.19,13.69-5.28,22.7,3.14,9.73,8.54,15.56,16.05,17.31,6.28,1.47,12.48-.29,16.18-1.34l1.29-.37c5.11-1.45,14.61-4.14,17.98-13.11,1.74-4.63,1.54-10.33-.59-16.92-2.97-9.2-9.31-14.81-18.35-16.24Z"/>
      <path class="cls-2" d="m160.93,47.84c-6.04,2.98-10.49,2.97-10.49,2.97l10.19-5.96c-2.44-7.56-11.94-7.1-11.94-7.1,3.99-2.17,7.75-2.73,7.75-2.73-3.21-1.86-7.33-1.61-7.33-1.61,2.17-.85,4.71-1.03,4.71-1.03-1.42-.71-.51-1.58-.51-1.58-2.92-3.89-9.04-6.75-9.05-6.75-7.06-1.11-13.46.96-13.46.96,0,0-23.71,5.77-16.86,26.97,6.84,21.2,22.77,16.35,30.17,14.25,5.07-1.44,14.22-3.87,17.29-12.07.43-3.78-.48-6.33-.48-6.33Z"/>
      <path class="cls-2" d="m131.04,65.69c2.91-.7,7.92-3.13,7.92-3.13-3.94,1.15-7.94.92-7.94.92,1.47-.47,3.63-1.52,3.63-1.52-6.5,1.13-9.64-.69-9.64-.69-.99-2.16-.89-4.17-.89-4.17l24.68-15.75c-12.69,2.14-20.59,6.63-20.59,6.63,2.02-2.12,5.97-4.94,5.97-4.94-6.48,2.75-10.54,5.59-10.54,5.59,2.44-2.55-.85-1.41-.85-1.41,4.46-5.5,13.79-11.55,13.79-11.55-8.41,3.4-13.58,6.68-13.58,6.68,3.51-7.65,5.77-16.47,5.77-16.47,0,0-24.25,9.67-12.99,31.24,9.3,17.82,27.02,11.89,33.19,8.99-12.12,3.72-17.94-.41-17.94-.41Z"/>
      <path class="cls-4" d="m130.87,49.9s.09-.06.25-.18c.17-.11.41-.29.73-.49.63-.41,1.55-.96,2.67-1.55,1.12-.59,2.46-1.23,3.91-1.86.73-.31,1.48-.62,2.26-.92.77-.3,1.57-.58,2.36-.86.8-.27,1.6-.54,2.4-.78.79-.24,1.58-.47,2.35-.67,1.54-.41,2.99-.73,4.26-.97,1.27-.23,2.34-.38,3.1-.45.38-.05.68-.06.89-.08.21-.01.32-.02.32-.02,2.55-.13,5.12,2.27,5.75,5.35.45,2.23-.23,4.2-1.6,5.19,0,0-.09.06-.25.18-.17.11-.41.29-.73.48-.63.41-1.55.95-2.67,1.55-1.12.59-2.46,1.23-3.91,1.86-.72.31-1.48.62-2.26.92-.77.3-1.57.59-2.36.87-.8.27-1.6.54-2.39.78-.79.25-1.58.47-2.35.68-1.54.41-2.99.74-4.26.97-1.27.23-2.34.37-3.11.45-.38.05-.68.06-.89.07-.21.01-.32.02-.32.02-2.55.12-5.12-2.28-5.74-5.37-.45-2.22.24-4.19,1.59-5.17Z"/>
    </g>
    <path class="cls-2" d="m126.88,66.23s-7.84,2.51-11.83,6.82-13,12.94-13,12.94c0,0,2.81-2.84,5.91-2.74s5.1,1.1,5.1,1.1c0,0,5-5,7.9-7.03,1.61-1.13,8.6-5.75,8.6-5.75l-2.69-5.34Z"/>
    <path class="cls-2" d="m126.56,66.86c1.39.15,3.6,3.98,2.86,7.71-.11.54-.85.24-.88-.27-.15-2.9-1.77-5.8-3.14-6.31-1-.37.78-1.17,1.16-1.13Z"/>
    <rect class="cls-2" x="125.06" y="66.36" width="27" height="3" rx="1.07" ry="1.07" transform="translate(3.08 -5.96) rotate(2.49)"/>
    <path class="cls-2" d="m153.1,67.86c-1.39.15.4,2.98,1.14,6.71.11.54.85.24.88-.27.15-2.9-.06-3.94-.86-5.31-.54-.92-.78-1.17-1.16-1.13Z"/>
    <path class="cls-2" d="m246.17,62.99s-2.45,3.34-4.95,5.16c0,0,.35,5.12,1.45,12.24.29,1.87.17,1.84-2.62,2.95-5,2-15.28,4.88-18,6l-3-5s10.36.09,12-1c3-2-4,0-4,0,0,0-10,3-14,2,0,0-9-5-11-9-.5-1-2-6-2-10,0-6.79,2.26-14.04,7.24-19.63,4.68-5.25,10.96-6.16,20.9-2.38,12.75,4.83,18.86,11.6,17.97,18.65Z"/>
    <path class="cls-2" d="m222.03,89.15l-.32-4.99-5.99.39.65,9.98s1.19-.33,1.87-2.13c.13-1.26,3.93-1.26,3.8-3.25Z"/>
    <path class="cls-1" d="m224.56,84.86c0-2-4.79-3.54-4.79-3.54l-3.75,6.24,8.54,7.3s-1-2-.82-4.59c.82-2.41.82-3.18.82-5.41Z"/>
    <path class="cls-2" d="m235.21,76.81s-5.74-.82-17.2-6.14c-11.46-5.32-15.8-9.16-15.8-9.16,0,0-.62.16-1.15,1.3,0,0-1.39,1.01-.8,2.22,0,0,5.98,4.69,16.03,9.34,10.04,4.66,17.4,6.42,17.4,6.42,0,0,1.25-.66,1.5-2.44,0,0,.61-.6.02-1.56Z"/>
    <path class="cls-2" d="m218.06,48.24c1.83-.77,17.73,6.78,18.9,8.78,1.17,2-6.54,18.93-8.42,19.43-1.88.5-19.12-7.92-19.57-9.22-.83-2.44,7.25-18.22,9.08-18.99Z"/>
    <path class="cls-2" d="m228.06,72.36c-.1-.04-.2-.06-.3-.08-.13-.24-.28-.48-.49-.71-3.01-3.3-26.44-2.34-26.44-2.34,0,0-3.21,4.75.79,11.96,3.15,5.67,12.6,3.11,18.84.62l-1.42,2.55,5,3s9.58-3.7,11-8c.85-2.58-5.12-6.25-7-7Z"/>
    <path class="cls-2" d="m206.97,66.61s-5.21,1.25-10.28,6.18c0,0,.78.87.83,2.57,0,0,1.65-.79.15.85,0,0,.1.42.02,1.46,0,0,4.88-6.43,11.37-9.55l-2.1-1.52Z"/>
    <path class="cls-2" d="m207.06,67.36s.95,3.04-.97,9.16c0,0,1.05-.71,2.87-.88,0,0-.13-2.37,1.01-.07,0,0,.71.11,1.41.3,0,0,.46-3.23-2.32-7.51l-2-1Z"/>
    <g>
      <path class="cls-2" d="m258.62,15.24c-3.99-4.89-9.26-7.62-10.78-8.33-.17-.08-.29-.14-.34-.16-.06-.03-.19-.09-.36-.18-1.59-.75-7.27-3.19-13.8-3.03-8.61.21-17.47,7.12-20.3,13.32s-3.38,16.96.88,23.09c3.57,5.13,9.27,7.82,12.68,9.43l1.19.56c4.7,2.22,13.45,6.36,22.01,1.92,4.42-2.29,8.16-6.61,11.1-12.85,4.11-8.69,3.32-16.91-2.29-23.78Z"/>
      <path class="cls-2" d="m253.06,45.02c-6.2-1.59-9.29-4.39-9.29-4.39l11.08,1.99c3.38-7.14-3.54-12.77-3.54-12.77,4.23.9,7.22,2.85,7.22,2.85-.98-3.39-4.01-5.8-4.01-5.8,2.08.74,3.96,2.2,3.96,2.2-.51-1.42.71-1.5.71-1.5.58-4.72-1.76-10.69-1.76-10.7-4.16-5.26-10-7.75-10-7.75,0,0-20.35-10.62-29.81,9.4-9.47,20.03,4.86,26.44,11.41,29.53,4.48,2.12,12.48,6.06,20.11,1.92,2.83-2.53,3.91-4.99,3.91-4.99Z"/>
      <path class="cls-2" d="m217.93,34.32c2.14,2.09,6.86,5.05,6.86,5.05-3.07-2.73-4.99-6.24-4.99-6.24,1.18,1,3.22,2.27,3.22,2.27-4.41-4.91-4.53-8.53-4.53-8.53,1.31-1.99,3.07-2.97,3.07-2.97l26.44,12.57c-8.54-9.62-16.54-13.94-16.54-13.94,2.87.59,7.35,2.44,7.35,2.44-5.77-4.03-10.33-5.97-10.33-5.97,3.46.71.74-1.47.74-1.47,7.03.86,17.11,5.56,17.11,5.56-7.35-5.33-12.87-7.97-12.87-7.97,8.34-1.08,17.03-3.84,17.03-3.84,0,0-21.06-15.43-33.38,5.56-10.18,17.33,4.26,29.21,9.99,32.9-9.58-8.3-9.17-15.42-9.17-15.42Z"/>
      <path class="cls-4" d="m231.65,27.39s.1.03.29.08c.18.06.46.14.8.26.68.23,1.63.6,2.73,1.1,1.1.5,2.36,1.12,3.66,1.85.65.37,1.32.75,1.99,1.16.67.4,1.34.84,2.01,1.27.66.45,1.32.89,1.96,1.35.64.46,1.26.92,1.85,1.38,1.18.92,2.25,1.83,3.14,2.64.89.82,1.6,1.55,2.09,2.08.25.26.43.48.56.63.12.15.19.23.19.23,1.52,1.85,1.02,5.21-1.13,7.51-1.54,1.66-3.52,2.31-5.07,1.86,0,0-.1-.03-.29-.08-.18-.06-.46-.14-.79-.27-.68-.24-1.63-.6-2.73-1.1-1.1-.5-2.36-1.12-3.66-1.85-.65-.36-1.32-.75-1.99-1.16-.67-.4-1.34-.84-2.01-1.27-.66-.44-1.32-.89-1.96-1.35-.64-.45-1.26-.92-1.85-1.38-1.18-.92-2.25-1.82-3.14-2.64-.89-.82-1.6-1.55-2.08-2.08-.25-.26-.43-.48-.55-.63-.12-.15-.19-.23-.19-.23-1.52-1.85-1-5.22,1.14-7.52,1.54-1.65,3.51-2.3,5.05-1.85Z"/>
    </g>
    <path class="cls-2" d="m246.88,69.81l-7.03-1.95s3.79,2.55,2.91,6.07-3.07,6.6-3.07,6.6c0,0,2.88.85,4.35-.28s3.22-2.51,4.12-5.91c.53-2-1.28-4.53-1.28-4.53Z"/>
    <path class="cls-2" d="m241.7,57.8l5.17,12.01-7.03-1.95s-3.25-5.76-2.65-6.75,4.5-3.31,4.5-3.31Z"/>
    <path class="cls-2" d="m217.96,43.04s-.47-1.91-5.9.31-1,21-1,21c0,0,4.23,2.6,7,4s4-6,4-6c0,0-5.92-3.26-5-5s1.08-8.33,1.08-8.33l-.19-5.98Z"/>
    <path class="cls-2" d="m217.41,43.48c1.2.72,1.59,5.13-.66,8.2-.33.45-.87-.14-.68-.62,1.09-2.69.84-6.01-.19-7.04-.75-.76,1.2-.74,1.53-.54Z"/>
    <rect class="cls-2" x="214.38" y="47.94" width="27" height="3" rx="1.07" ry="1.07" transform="translate(48.33 -99.34) rotate(27.41)"/>
    <path class="cls-2" d="m241.06,55.56c-1.33-.45-4.95,2.09-5.84,5.79-.13.54.67.58.91.13,1.36-2.57,4.05-4.52,5.51-4.4,1.06.09-.21-1.39-.58-1.52Z"/>
    <g>
      <path class="cls-3" d="m219.51,64.39h0c1.06-.2,2.13-.41,3.18-.66.43-.1.85-.21,1.26-.32,1.12-.3,2.19-.61,3.19-.92.46-.15.91-.29,1.33-.43,1.32-.44,2.44-.85,3.27-1.17.75-.29,1.25-.49,1.41-.56.03-.01.06-.03.06-.03,1.08-.46,2.33.05,2.79,1.13.43,1.02.01,2.18-.93,2.7-.06.03-.12.07-.19.09-.17.07-2.28.96-5.31,1.96-.43.14-.87.29-1.33.43-.97.3-2.02.61-3.1.89-.42.11-.84.22-1.27.32-.99.24-2,.46-3.02.65-.4.07-.8.14-1.2.21-.13.02-.26.04-.4.06-.12.02-.24.02-.36.02-.51-2.58.61-4.37.61-4.37Z"/>
      <path class="cls-3" d="m231.73,60.88l-3.5,5.72c.46-.14.9-.29,1.33-.43l3.59-5.85c-.16.07-.66.27-1.41.56Z"/>
      <path class="cls-3" d="m238.04,60.58c1.1,2.91,1.35,5.47-.18,6.09-1.61.66-3.07-1.54-4.17-4.45-1.1-2.91-1.52-5.47.18-6.09,1.74-.64,3.07,1.54,4.17,4.45Z"/>
      <path class="cls-3" d="m236.25,62.4l-.93-2.45c-.09-.25.02-.52.27-.62,2.93-1.2,7.92-3.36,14.13-6.49,1.2-.6,2.45-1.25,3.74-1.93,4.99-2.63,10.59-5.82,16.46-9.56,2.78-1.78,5.61-3.67,8.47-5.7,1.46-1.03,2.93-2.1,4.4-3.2.82-.61,1.98.04,1.87,1.05-.06.5-.15,1.05-.3,1.64v.02c-.31,1.15-1,2.17-1.96,2.86-7.06,5.1-14.02,9.45-20.36,13.05-11.15,6.33-20.39,10.38-24.91,12.23-.25.1-.54-.02-.64-.28l-.23-.61Z"/>
    </g>
    <path class="cls-2" d="m232.06,70.5c.97-.83-2.77-4.52-1.78-4.78,2.95-.76,1.46,2.8,4.11.35,1.74-1.62-6.21-7.1-9.01-5.64-4.78,1.78-9.09,2.12-7.93,7.36,4.27,2.13,9.87,6.66,14.62,2.71Z"/>
    <path class="cls-2" d="m227.66,65.33c.06,2.24,3.46,2.74,2.79,3.5-2.02,2.27-2.17,5.61,1.1,7.13.91.42,7.07,5.66,8.58,2.88,2.97-4.14,2.98-6.72-.28-10.98-2.83-3.7-8.76-7.55-12.19-2.53Z"/>
    <path class="cls-2" d="m326.25,50.99s-4.01-1.02-6.64-2.66c0,0-4.61,2.24-10.81,5.93-1.62.97-1.64.85-3.72-1.32-3.73-3.89-10.25-12.35-12.3-14.45l3.51-4.65s3.79,9.64,5.42,10.75c2.98,2.03-1.5-3.71-1.5-3.71,0,0-6.52-8.15-7.09-12.23,0,0,1.27-10.22,4.23-13.57.74-.84,4.82-4.1,8.52-5.6,6.29-2.54,13.86-3.16,20.91-.63,6.62,2.38,9.81,7.86,10.03,18.49.29,13.63-3.7,21.83-10.56,23.65Z"/>
    <path class="cls-2" d="m292.96,38.39l4.51-2.17-2.6-5.41-9.01,4.34s.75.98,2.67.93c1.22-.35,2.64,3.17,4.44,2.3Z"/>
    <path class="cls-1" d="m297.89,39.14c1.85-.75,1.49-5.77,1.49-5.77l-7.19-1.14-3.57,10.65s1.48-1.68,3.95-2.48c2.54-.14,3.25-.43,5.33-1.26Z"/>
    <path class="cls-2" d="m309.33,46s-1.39-5.63-.75-18.24c.64-12.62,2.58-18.08,2.58-18.08,0,0-.38-.52-1.64-.58,0,0-1.45-.91-2.36.09,0,0-2.11,7.3-2.67,18.36-.56,11.06.56,18.54.56,18.54,0,0,1.08.91,2.83.48,0,0,.78.34,1.45-.57Z"/>
    <path class="cls-2" d="m329.41,19.4c1.4,1.41.35,18.98-1.07,20.82-1.42,1.83-20,1.02-21.16-.53-1.17-1.56.18-20.7,1.23-21.6,1.96-1.68,19.61-.1,21,1.31Z"/>
    <path class="cls-2" d="m310.79,37.7c0-.11-.02-.21-.04-.3.18-.21.34-.44.47-.72,1.94-4.03-7.72-25.39-7.72-25.39,0,0-5.61-1.2-10.79,5.21-4.08,5.05,1.83,12.85,6.48,17.71l-2.89-.36-.91,5.76s7.02,7.5,11.54,7.21c2.71-.18,3.88-7.09,3.87-9.11Z"/>
    <path class="cls-2" d="m308.6,16.92s-3.11-4.36-9.58-7.22c0,0-.51,1.05-2.08,1.73,0,0,1.35,1.23-.73.46,0,0-.36.25-1.35.56,0,0,7.79,2.12,13.11,6.97l.62-2.51Z"/>
    <path class="cls-2" d="m307.94,17.29s-2.46,2.02-8.85,2.53c0,0,1.05.71,1.89,2.33,0,0,2.15-1.01.44.91,0,0,.17.7.24,1.42,0,0,3.17-.78,6.1-4.96l.18-2.23Z"/>
    <g>
      <path class="cls-2" d="m375.19,44.66c3.04-5.53,3.6-11.44,3.69-13.11.01-.19.02-.32.02-.38,0-.07.02-.21.03-.4.1-1.75.23-7.94-2.36-13.93-3.41-7.9-13.14-13.53-19.95-13.84s-16.99,3.21-21.08,9.46c-3.42,5.23-3.78,11.53-4,15.29l-.08,1.32c-.3,5.19-.86,14.85,6.46,21.13,3.78,3.24,9.19,5.09,16.07,5.49,9.6.56,16.92-3.25,21.19-11.02Z"/>
      <path class="cls-2" d="m345.49,50.66c-.85-6.34.59-10.25.59-10.25l2.31,11.02c7.89.46,10.52-8.06,10.52-8.06.75,4.26.06,7.76.06,7.76,2.78-2.18,3.88-5.89,3.88-5.89.09,2.2-.56,4.5-.56,4.5,1.12-1,1.65.1,1.65.1,4.6-1.23,9.25-5.63,9.26-5.64,3.32-5.83,3.44-12.17,3.44-12.17,0,0,2.24-22.84-19.88-24.13-22.11-1.28-22.7,14.4-23.12,21.63-.29,4.95-.95,13.84,5.75,19.37,3.41,1.68,6.1,1.76,6.1,1.76Z"/>
      <path class="cls-2" d="m342.27,14.06c-1.14,2.77-2.12,8.25-2.12,8.25,1.38-3.87,3.92-6.96,3.92-6.96-.48,1.46-.9,3.84-.9,3.84,2.9-5.92,6.22-7.39,6.22-7.39,2.33.47,3.9,1.73,3.9,1.73l-1.75,29.22c5.73-11.52,6.73-20.55,6.73-20.55.52,2.88.49,7.73.49,7.73,1.58-6.86,1.67-11.81,1.67-11.81.63,3.47,1.64.14,1.64.14,1.83,6.84,1.25,17.94,1.25,17.94,2.19-8.81,2.57-14.92,2.57-14.92,4.12,7.33,9.94,14.35,9.94,14.35,0,0,6.42-25.3-17.65-28.87-19.88-2.95-25.5,14.88-26.77,21.58,4.11-11.99,10.87-14.27,10.87-14.27Z"/>
      <path class="cls-4" d="m353.83,24.19s.01.1.03.3c.01.19.05.48.05.84.04.72.05,1.74,0,2.94-.05,1.21-.16,2.61-.35,4.09-.1.74-.2,1.51-.33,2.28-.12.77-.28,1.55-.43,2.34-.17.78-.33,1.56-.52,2.32-.18.76-.38,1.51-.59,2.23-.41,1.44-.85,2.77-1.28,3.9-.42,1.13-.83,2.06-1.15,2.71-.15.33-.29.58-.37.75-.09.17-.14.26-.14.26-1.14,2.1-4.45,2.89-7.39,1.77-2.12-.81-3.46-2.4-3.62-4,0,0,0-.1-.03-.3-.01-.19-.04-.48-.05-.84-.04-.72-.05-1.74,0-2.94.05-1.21.16-2.61.35-4.09.09-.74.2-1.51.33-2.28.12-.77.27-1.56.42-2.34.17-.78.33-1.56.51-2.32.18-.76.38-1.51.58-2.23.41-1.44.85-2.77,1.28-3.9.43-1.13.84-2.06,1.15-2.71.15-.33.29-.58.38-.75.09-.17.14-.26.14-.26,1.15-2.1,4.46-2.88,7.4-1.75,2.11.81,3.44,2.39,3.61,3.99Z"/>
    </g>
    <path class="cls-2" d="m320.2,54.2l-.82-7.24s-.95,4.47-4.54,4.97-7.27-.37-7.27-.37c0,0,.29,2.99,1.88,3.93s3.54,2.04,7.02,1.6c2.06-.26,3.73-2.88,3.73-2.88Z"/>
    <path class="cls-2" d="m329.4,44.9l-9.2,9.29-.82-7.24s4.12-5.17,5.27-4.99,4.76,2.94,4.76,2.94Z"/>
    <path class="cls-2" d="m334.19,17.36s1.6-1.15-2.5-5.35-19.85,6.93-19.85,6.93c0,0-.83,4.9-1.09,7.99s7.06,1.46,7.06,1.46c0,0,.81-6.71,2.77-6.51s8.13-2.11,8.13-2.11l5.47-2.41Z"/>
    <path class="cls-2" d="m333.58,17.01c-.22,1.38-4.16,3.39-7.85,2.46-.54-.14-.19-.86.31-.86,2.9,0,5.89-1.47,6.46-2.81.42-.98,1.13.84,1.07,1.22Z"/>
    <rect class="cls-2" x="318.47" y="27.45" width="27" height="3" rx="1.07" ry="1.07" transform="translate(392.18 -298.8) rotate(95.43)"/>
    <path class="cls-2" d="m331.23,43.47c-.08-1.4-3.79-3.8-7.56-3.25-.55.08-.28.84.22.89,2.89.3,5.71,2.06,6.14,3.46.32,1.02,1.21-.72,1.19-1.1Z"/>
    <g>
      <path class="cls-3" d="m314.98,26.78h.01c.57.91,1.17,1.82,1.79,2.7.25.36.51.71.77,1.05.69.92,1.39,1.8,2.05,2.61.31.37.61.73.9,1.07.9,1.06,1.71,1.95,2.31,2.59.55.59.92.98,1.05,1.1.03.03.05.05.05.05.83.83.83,2.18,0,3.01-.78.78-2.01.83-2.85.14-.05-.04-.11-.09-.16-.14-.13-.13-1.74-1.75-3.81-4.19-.29-.34-.59-.7-.89-1.07-.64-.79-1.32-1.64-1.99-2.54-.26-.34-.52-.7-.77-1.05-.59-.83-1.18-1.68-1.73-2.56-.22-.34-.43-.68-.64-1.03-.07-.11-.14-.23-.21-.34-.06-.11-.11-.22-.15-.33,2.2-1.44,4.28-1.07,4.28-1.07Z"/>
      <path class="cls-3" d="m322.81,36.81l-6.62-1.11c.3.37.6.73.89,1.07l6.77,1.14c-.12-.13-.5-.51-1.05-1.1Z"/>
      <path class="cls-3" d="m325.45,42.55c-2.29,2.11-4.56,3.3-5.71,2.12-1.21-1.25.28-3.42,2.56-5.53,2.29-2.11,4.51-3.46,5.71-2.12,1.24,1.38-.28,3.42-2.56,5.53Z"/>
      <path class="cls-3" d="m323.09,41.57l1.93-1.78c.19-.18.49-.17.68.02,2.21,2.27,6.08,6.08,11.31,10.67,1.01.89,2.08,1.8,3.19,2.74,4.31,3.65,9.36,7.65,15.03,11.69,2.69,1.91,5.5,3.83,8.45,5.72,1.51.97,3.04,1.93,4.62,2.88.87.53.7,1.85-.28,2.13-.49.14-1.03.25-1.63.33h-.02c-1.18.15-2.38-.11-3.39-.74-7.37-4.64-14.01-9.46-19.72-13.99-10.05-7.97-17.26-15.02-20.67-18.52-.19-.2-.18-.51.02-.7l.48-.44Z"/>
    </g>
    <path class="cls-2" d="m314.01,40.72c1.14.59,3.16-4.26,3.76-3.44,1.81,2.45-2.05,2.41,1.21,3.94,2.15,1.01,4.26-8.42,1.85-10.47-3.44-3.76-5.37-7.64-9.79-4.6-.38,4.76-2.48,11.65,2.96,14.57Z"/>
    <path class="cls-2" d="m317.16,34.7c-2.05.9-1.25,4.23-2.2,3.89-2.87-1.03-6.01.09-6.2,3.69-.05,1-2.6,8.68.54,9.04,4.95,1.21,7.35.25,10.08-4.37,2.37-4.01,3.73-10.95-2.21-12.25Z"/>
    <path class="cls-2" d="m409.44,42.31s.68-4.08,2.09-6.84c0,0-2.62-4.41-6.81-10.28-1.1-1.54-.98-1.57,1.01-3.82,3.56-4.04,11.45-11.24,13.37-13.46l4.93,3.11s-9.29,4.58-10.26,6.3c-1.78,3.14,3.57-1.8,3.57-1.8,0,0,7.58-7.18,11.6-8.09,0,0,10.29.41,13.87,3.08.9.67,4.49,4.46,6.29,8.03,3.06,6.06,4.31,13.55,2.38,20.78-1.81,6.79-7.01,10.43-17.58,11.54-13.56,1.43-22.06-1.86-24.45-8.55Z"/>
    <path class="cls-2" d="m419.22,8.09l2.54,4.31,5.17-3.05-5.08-8.62s-.91.83-.71,2.74c.45,1.18-2.94,2.89-1.92,4.61Z"/>
    <path class="cls-1" d="m418.89,13.06c.9,1.79,5.87,1,5.87,1l.54-7.26-10.91-2.67s1.79,1.34,2.8,3.73c.35,2.52.7,3.21,1.71,5.2Z"/>
    <path class="cls-2" d="m413.01,25.04s5.49-1.85,18.12-2.27c12.63-.42,18.23,1.06,18.23,1.06,0,0,.48-.42.44-1.68,0,0,.79-1.52-.29-2.34,0,0-7.45-1.49-18.52-1.12-11.06.37-18.43,2.1-18.43,2.1,0,0-.82,1.15-.24,2.86,0,0-.28.81.69,1.4Z"/>
    <path class="cls-2" d="m441.19,42.82c-1.29,1.51-18.89,1.93-20.83.68-1.95-1.26-2.69-19.84-1.24-21.13,1.45-1.29,20.64-1.55,21.62-.58,1.84,1.81,1.74,19.53.45,21.04Z"/>
    <path class="cls-2" d="m421.39,25.8c.11,0,.2-.04.3-.07.23.16.47.3.75.41,4.18,1.59,24.66-9.82,24.66-9.82,0,0,.73-5.69-6.1-10.32-5.37-3.65-12.65,2.9-17.1,7.94l.12-2.91-5.82-.43s-6.89,7.62-6.22,12.1c.4,2.68,7.39,3.27,9.4,3.1Z"/>
    <path class="cls-2" d="m441.92,21.87s4.09-3.46,6.39-10.15c0,0-1.08-.42-1.9-1.92,0,0-1.12,1.45-.52-.69,0,0-.28-.33-.67-1.3,0,0-1.46,7.94-5.85,13.65l2.56.41Z"/>
    <path class="cls-2" d="m441.5,21.25s-2.22-2.28-3.26-8.61c0,0-.62,1.11-2.17,2.08,0,0,1.18,2.05-.87.52,0,0-.68.22-1.39.36,0,0,1.04,3.09,5.45,5.66h2.24Z"/>
    <g>
      <path class="cls-2" d="m419.84,90.55c5.77,2.57,11.7,2.63,13.38,2.59.19,0,.32-.01.38-.01.07,0,.21,0,.4,0,1.75-.05,7.93-.43,13.68-3.51,7.59-4.06,12.39-14.23,12.12-21.04s-4.62-16.67-11.19-20.22c-5.5-2.97-11.8-2.81-15.57-2.71l-1.32.03c-5.2.13-14.87.38-20.51,8.21-2.91,4.04-4.3,9.58-4.13,16.47.25,9.61,4.66,16.59,12.75,20.2Z"/>
      <path class="cls-2" d="m411.38,61.46c6.25-1.37,10.27-.26,10.27-.26l-10.79,3.22c.2,7.9,8.91,9.81,8.91,9.81-4.18,1.1-7.73.71-7.73.71,2.41,2.58,6.19,3.37,6.19,3.37-2.19.28-4.53-.18-4.53-.18,1.09,1.04.04,1.65.04,1.65,1.61,4.48,6.38,8.75,6.39,8.76,6.09,2.82,12.42,2.41,12.42,2.41,0,0,22.95.32,22.38-21.82-.57-22.14-16.25-21.42-23.49-21.23-4.96.13-13.87.21-18.82,7.34-1.39,3.54-1.24,6.22-1.24,6.22Z"/>
      <path class="cls-2" d="m447.58,55.19c-2.85-.91-8.4-1.42-8.4-1.42,3.97,1.06,7.26,3.32,7.26,3.32-1.5-.36-3.9-.58-3.9-.58,6.14,2.4,7.89,5.58,7.89,5.58-.27,2.36-1.4,4.03-1.4,4.03l-29.27.69c11.96,4.74,21.04,4.99,21.04,4.99-2.82.76-7.67,1.13-7.67,1.13,6.96,1,11.91.68,11.91.68-3.41.92,0,1.65,0,1.65-6.66,2.4-17.78,2.74-17.78,2.74,8.96,1.45,15.08,1.32,15.08,1.32-6.96,4.72-13.47,11.1-13.47,11.1,0,0,25.75,4.29,27.3-20,1.28-20.06-16.96-24.17-23.74-24.88,12.29,3.09,15.13,9.64,15.13,9.64Z"/>
      <path class="cls-4" d="m438.45,67.55s-.1.02-.29.05c-.19.03-.47.09-.83.12-.71.1-1.73.2-2.93.25-1.21.05-2.61.06-4.11,0-.75-.03-1.52-.07-2.3-.14-.78-.06-1.57-.15-2.36-.23-.79-.1-1.58-.2-2.35-.32-.77-.12-1.54-.25-2.27-.4-1.47-.29-2.83-.62-4-.94-1.16-.33-2.13-.66-2.8-.92-.34-.12-.6-.24-.78-.31-.18-.08-.27-.12-.27-.12-2.19-.96-3.25-4.19-2.38-7.22.63-2.18,2.1-3.65,3.69-3.94,0,0,.1-.02.29-.05.19-.03.47-.08.83-.12.71-.09,1.73-.19,2.93-.24,1.21-.05,2.61-.06,4.11,0,.75.03,1.52.07,2.3.14.78.06,1.57.14,2.37.23.79.1,1.58.19,2.35.32.78.11,1.54.25,2.27.4,1.47.28,2.83.61,4,.94,1.16.33,2.13.66,2.8.92.34.12.6.24.78.31.18.08.27.12.27.12,2.19.97,3.25,4.21,2.37,7.23-.63,2.17-2.09,3.63-3.67,3.93Z"/>
    </g>
    <path class="cls-2" d="m405.74,36.55l7.15-1.43s-4.53-.57-5.33-4.11-.24-7.28-.24-7.28c0,0-2.95.54-3.76,2.21s-1.74,3.69-1.01,7.13c.43,2.03,3.18,3.47,3.18,3.47Z"/>
    <path class="cls-2" d="m415.77,44.94l-10.03-8.39,7.15-1.43s5.5,3.68,5.41,4.83-2.53,4.98-2.53,4.98Z"/>
    <path class="cls-2" d="m443.62,47.41s1.28,1.5,5.12-2.93c3.84-4.43-8.57-19.2-8.57-19.2,0,0-4.95-.42-8.05-.42s-.87,7.16-.87,7.16c0,0,6.75.24,6.72,2.21s2.78,7.93,2.78,7.93l2.86,5.25Z"/>
    <path class="cls-2" d="m443.92,46.78c-1.4-.11-3.73-3.86-3.1-7.61.09-.55.85-.27.89.24.24,2.89,1.95,5.74,3.34,6.2,1.01.34-.74,1.2-1.13,1.17Z"/>
    <rect class="cls-2" x="418.38" y="44.67" width="27" height="3" rx="1.07" ry="1.07" transform="translate(863.23 97.12) rotate(-179.37)"/>
    <path class="cls-2" d="m417.36,46.64c1.39-.2,3.47-4.1,2.6-7.8-.13-.54-.86-.21-.87.3-.05,2.9-1.58,5.86-2.93,6.41-.99.4.82,1.15,1.2,1.09Z"/>
    <g>
      <path class="cls-3" d="m432.62,29.05h0c-.87.65-1.72,1.32-2.54,2.02-.33.28-.66.57-.99.85-.86.77-1.68,1.53-2.43,2.26-.35.34-.68.67-1,.99-.98.99-1.8,1.86-2.39,2.51-.54.6-.89,1-1.01,1.13-.02.03-.04.05-.04.05-.76.9-2.1,1.01-3,.25-.84-.71-.99-1.94-.38-2.83.04-.06.08-.12.13-.17.12-.14,1.6-1.88,3.86-4.15.32-.32.65-.65,1-.98.73-.71,1.53-1.45,2.36-2.19.32-.29.65-.57.98-.86.77-.66,1.58-1.31,2.4-1.94.32-.25.65-.49.97-.72.11-.08.22-.16.32-.23.1-.07.21-.12.31-.17,1.62,2.07,1.42,4.17,1.42,4.17Z"/>
      <path class="cls-3" d="m423.28,37.69l.55-6.69c-.35.33-.68.66-1,.98l-.57,6.84c.12-.13.47-.54,1.01-1.13Z"/>
      <path class="cls-3" d="m417.79,40.81c-2.29-2.1-3.67-4.27-2.59-5.52,1.14-1.31,3.43-.01,5.72,2.09,2.3,2.1,3.82,4.2,2.59,5.52-1.27,1.35-3.43.01-5.72-2.09Z"/>
      <path class="cls-3" d="m418.57,38.37l1.93,1.77c.2.18.21.48.04.68-2.08,2.4-5.55,6.57-9.69,12.16-.8,1.08-1.62,2.22-2.47,3.4-3.27,4.6-6.84,9.97-10.39,15.95-1.68,2.84-3.36,5.8-5,8.9-.84,1.58-1.67,3.19-2.48,4.84-.45.91-1.79.86-2.14-.1-.18-.47-.34-1.01-.47-1.6v-.02c-.25-1.16-.09-2.38.46-3.44,4-7.73,8.26-14.75,12.3-20.82,7.1-10.68,13.53-18.46,16.73-22.14.18-.21.49-.22.7-.04l.48.44Z"/>
    </g>
    <path class="cls-2" d="m418.65,29.25c-.49,1.18,4.51,2.79,3.74,3.46-2.29,2.01-2.57-1.84-3.83,1.54-.83,2.23,8.74,3.54,10.59.97,3.46-3.74,7.16-5.99,3.77-10.14-4.77.02-11.82-1.5-14.27,4.17Z"/>
    <path class="cls-2" d="m424.92,31.89c-1.06-1.97-4.32-.89-4.06-1.87.78-2.94-.59-5.98-4.19-5.87-1,.03-8.87-1.87-8.96,1.29-.79,5.04.36,7.34,5.19,9.68,4.19,2.03,11.22,2.8,12.03-3.23Z"/>
    <path class="cls-2" d="m526.59,29.63s4.08.72,6.82,2.17c0,0,4.44-2.57,10.35-6.7,1.55-1.08,1.58-.96,3.8,1.05,4,3.61,11.11,11.57,13.32,13.52l-3.17,4.9s-4.48-9.34-6.18-10.33c-3.12-1.81,1.76,3.59,1.76,3.59,0,0,7.1,7.66,7.96,11.69,0,0-.52,10.28-3.23,13.84-.68.89-4.51,4.44-8.1,6.2-6.09,2.99-13.6,4.16-20.81,2.15-6.77-1.89-10.35-7.12-11.34-17.71-1.28-13.57,2.1-22.04,8.82-24.35Z"/>
    <path class="cls-2" d="m560.71,39.78l-4.34,2.49,2.99,5.2,8.67-4.98s-.82-.92-2.73-.74c-1.19.44-2.86-2.97-4.59-1.97Z"/>
    <path class="cls-1" d="m555.73,39.4c-1.8.88-1.07,5.86-1.07,5.86l7.25.62,2.79-10.88s-1.35,1.78-3.76,2.76c-2.53.33-3.21.66-5.22,1.65Z"/>
    <path class="cls-2" d="m543.82,33.39s1.79,5.51,2.07,18.14c.28,12.63-1.27,18.22-1.27,18.22,0,0,.42.49,1.68.46,0,0,1.51.8,2.35-.26,0,0,1.57-7.44,1.33-18.5-.24-11.07-1.9-18.45-1.9-18.45,0,0-1.15-.83-2.85-.27,0,0-.8-.28-1.41.67Z"/>
    <path class="cls-2" d="m525.73,61.37c-1.49-1.31-1.73-18.91-.45-20.84,1.28-1.93,19.87-2.47,21.15-1,1.28,1.47,1.32,20.66.34,21.63-1.83,1.82-19.55,1.52-21.04.21Z"/>
    <path class="cls-2" d="m542.97,41.76c0,.11.03.2.06.3-.16.23-.31.47-.42.75-1.64,4.16,9.54,24.77,9.54,24.77,0,0,5.68.79,10.39-5.98,3.7-5.33-2.76-12.68-7.75-17.19l2.91.15.49-5.81s-7.55-6.97-12.03-6.35c-2.69.37-3.35,7.35-3.2,9.37Z"/>
    <path class="cls-2" d="m546.67,62.34s3.42,4.13,10.08,6.5c0,0,.43-1.08,1.95-1.88,0,0-1.44-1.13.7-.51,0,0,.34-.27,1.3-.66,0,0-7.92-1.54-13.58-6.01l-.44,2.55Z"/>
    <path class="cls-2" d="m547.29,61.92s2.31-2.19,8.65-3.16c0,0-1.1-.63-2.05-2.19,0,0-2.07,1.16-.51-.88,0,0-.22-.68-.35-1.4,0,0-3.1,1-5.72,5.39l-.02,2.24Z"/>
    <g>
      <path class="cls-2" d="m478.24,39.5c-2.63,5.74-2.76,11.67-2.73,13.35,0,.19,0,.32,0,.38,0,.07,0,.21,0,.4.03,1.76.34,7.93,3.36,13.72,3.98,7.63,14.09,12.54,20.9,12.36s16.72-4.43,20.34-10.97c3.03-5.46,2.94-11.77,2.88-15.54l-.02-1.32c-.08-5.2-.22-14.87-7.98-20.6-4.01-2.96-9.53-4.41-16.42-4.31-9.61.14-16.64,4.47-20.34,12.53Z"/>
      <path class="cls-2" d="m507.42,31.36c1.31,6.26.15,10.27.15,10.27l-3.1-10.82c-7.9.12-9.91,8.8-9.91,8.8-1.06-4.2-.62-7.74-.62-7.74-2.61,2.38-3.44,6.16-3.44,6.16-.25-2.19.23-4.52.23-4.52-1.05,1.08-1.65.02-1.65.02-4.49,1.56-8.82,6.29-8.83,6.29-2.89,6.06-2.55,12.39-2.55,12.39,0,0-.57,22.95,21.57,22.62,22.15-.32,21.59-16.01,21.49-23.25-.07-4.96-.05-13.88-7.14-18.9-3.52-1.43-6.21-1.31-6.21-1.31Z"/>
      <path class="cls-2" d="m513.29,67.62c.94-2.84,1.51-8.38,1.51-8.38-1.1,3.96-3.4,7.23-3.4,7.23.38-1.5.62-3.89.62-3.89-2.46,6.12-5.66,7.82-5.66,7.82-2.36-.3-4.01-1.45-4.01-1.45l-.37-29.27c-4.88,11.91-5.22,20.99-5.22,20.99-.73-2.83-1.04-7.68-1.04-7.68-1.08,6.95-.81,11.9-.81,11.9-.88-3.42-1.65-.02-1.65-.02-2.32-6.69-2.55-17.81-2.55-17.81-1.55,8.94-1.48,15.06-1.48,15.06-4.65-7.01-10.95-13.59-10.95-13.59,0,0-4.57,25.7,19.69,27.52,20.04,1.5,24.35-16.69,25.14-23.46-3.23,12.26-9.81,15.02-9.81,15.02Z"/>
      <path class="cls-4" d="m501.03,58.36s-.02-.1-.05-.29c-.03-.19-.08-.47-.11-.83-.09-.71-.18-1.73-.22-2.94-.04-1.21-.03-2.61.05-4.11.04-.75.09-1.52.17-2.3.07-.78.16-1.57.26-2.36.11-.79.22-1.58.35-2.35.13-.77.27-1.53.42-2.27.3-1.47.65-2.83.99-3.99.34-1.16.68-2.12.95-2.79.12-.34.25-.6.32-.77.08-.18.12-.27.12-.27.99-2.18,4.23-3.21,7.24-2.3,2.17.65,3.63,2.14,3.9,3.73,0,0,.02.1.05.29.02.19.08.47.11.83.09.71.18,1.73.21,2.94.04,1.21.03,2.61-.05,4.11-.04.75-.09,1.52-.16,2.3-.06.78-.16,1.57-.25,2.36-.11.79-.21,1.58-.34,2.35-.12.77-.27,1.53-.42,2.27-.3,1.47-.64,2.83-.99,3.99-.34,1.16-.68,2.12-.95,2.79-.12.34-.25.59-.32.77-.08.18-.12.27-.12.27-1,2.18-4.24,3.2-7.25,2.29-2.16-.66-3.61-2.13-3.89-3.72Z"/>
    </g>
    <path class="cls-2" d="m532.39,25.99l1.35,7.17s.62-4.52,4.17-5.28,7.28-.16,7.28-.16c0,0-.51-2.96-2.16-3.78s-3.67-1.78-7.12-1.09c-2.03.41-3.51,3.14-3.51,3.14Z"/>
    <path class="cls-2" d="m523.89,35.93l8.5-9.94,1.35,7.17s-3.74,5.46-4.89,5.36-4.96-2.58-4.96-2.58Z"/>
    <path class="cls-2" d="m521.11,63.75s-1.51,1.26,2.88,5.16c4.39,3.89,19.29-8.35,19.29-8.35,0,0,.47-4.94.51-8.05.04-3.1-7.15-.95-7.15-.95,0,0-.32,6.75-2.29,6.69s-7.96,2.7-7.96,2.7l-5.28,2.8Z"/>
    <path class="cls-2" d="m521.74,64.05c.12-1.4,3.9-3.69,7.65-3.02.54.1.26.85-.25.88-2.89.21-5.76,1.89-6.24,3.27-.35,1.01-1.19-.76-1.16-1.14Z"/>
    <rect class="cls-2" x="508.98" y="50.53" width="27" height="3" rx="1.07" ry="1.07" transform="translate(458.91 573.23) rotate(-88.73)"/>
    <path class="cls-2" d="m522.17,37.5c.18,1.39,4.06,3.52,7.77,2.69.54-.12.22-.86-.29-.87-2.9-.09-5.84-1.64-6.37-3.01-.39-.99-1.16.81-1.11,1.19Z"/>
    <g>
      <path class="cls-3" d="m539.59,52.96h-.01c-.63-.87-1.3-1.73-1.98-2.56-.28-.34-.56-.67-.84-.99-.76-.87-1.51-1.7-2.24-2.46-.33-.35-.66-.69-.98-1.01-.98-.99-1.84-1.82-2.49-2.42-.59-.55-.99-.91-1.12-1.02-.03-.02-.05-.04-.05-.04-.89-.77-.99-2.11-.22-3,.72-.83,1.95-.97,2.83-.35.06.04.11.08.17.13.14.12,1.87,1.62,4.1,3.9.31.32.64.66.97,1.01.7.74,1.43,1.54,2.17,2.39.28.32.57.66.85.99.65.78,1.29,1.59,1.91,2.43.24.33.48.65.71.98.08.11.15.22.23.33.07.1.12.21.17.31-2.09,1.6-4.19,1.37-4.19,1.37Z"/>
      <path class="cls-3" d="m531.06,43.52l6.68.63c-.33-.35-.66-.69-.97-1.01l-6.83-.64c.13.12.53.47,1.12,1.02Z"/>
      <path class="cls-3" d="m528,37.99c2.13-2.27,4.31-3.62,5.55-2.52,1.3,1.16-.03,3.43-2.16,5.7-2.13,2.27-4.24,3.77-5.55,2.53-1.34-1.28.03-3.43,2.16-5.7Z"/>
      <path class="cls-3" d="m530.43,38.8l-1.79,1.92c-.18.19-.48.21-.68.03-2.37-2.1-6.5-5.63-12.06-9.83-1.07-.81-2.2-1.65-3.38-2.51-4.56-3.32-9.89-6.95-15.84-10.57-2.82-1.71-5.77-3.42-8.85-5.1-1.57-.86-3.18-1.7-4.81-2.54-.91-.46-.84-1.8.12-2.14.48-.17,1.01-.33,1.6-.45h.02c1.17-.24,2.38-.06,3.43.49,7.68,4.09,14.66,8.42,20.68,12.53,10.6,7.22,18.31,13.73,21.96,16.97.2.18.22.5.03.7l-.45.48Z"/>
    </g>
    <path class="cls-2" d="m539.55,38.99c-1.18-.51-2.84,4.48-3.5,3.71-1.98-2.31,1.87-2.55-1.5-3.84-2.22-.85-3.64,8.7-1.09,10.57,3.71,3.5,5.91,7.23,10.1,3.88.03-4.77,1.63-11.8-4.01-14.32Z"/>
    <path class="cls-2" d="m536.84,45.22c1.98-1.04.94-4.31,1.91-4.04,2.93.82,5.99-.52,5.91-4.13-.02-1,1.97-8.84-1.19-8.98-5.03-.84-7.34.28-9.73,5.09-2.07,4.17-2.92,11.19,3.1,12.06Z"/>
    <path class="cls-2" d="m623.69,61.38s-2.24,3.48-4.63,5.45c0,0,.66,5.09,2.19,12.13.4,1.85.28,1.83-2.43,3.11-4.87,2.3-14.96,5.8-17.6,7.08l-3.3-4.81s10.35-.53,11.92-1.73c2.87-2.18-3.99.24-3.99.24,0,0-9.8,3.6-13.85,2.84,0,0-9.29-4.45-11.53-8.32-.56-.97-2.36-5.87-2.6-9.86-.41-6.77,1.4-14.15,6.04-20.03,4.35-5.52,10.56-6.81,20.71-3.64,13.02,4.05,19.53,10.44,19.07,17.52Z"/>
    <path class="cls-2" d="m601.17,88.95l-.63-4.96-5.95.75,1.25,9.92s1.17-.4,1.73-2.23c.05-1.27,3.84-1.49,3.59-3.48Z"/>
    <path class="cls-1" d="m603.44,84.51c-.12-2-4.99-3.24-4.99-3.24l-3.37,6.46,8.97,6.77s-1.12-1.94-1.1-4.53c.67-2.46.63-3.22.49-5.45Z"/>
    <path class="cls-2" d="m613.58,75.84s-5.78-.47-17.54-5.08c-11.76-4.61-16.32-8.19-16.32-8.19,0,0-.61.2-1.07,1.37,0,0-1.32,1.09-.66,2.27,0,0,6.26,4.32,16.56,8.36,10.31,4.04,17.76,5.36,17.76,5.36,0,0,1.21-.74,1.35-2.53,0,0,.57-.63-.08-1.56Z"/>
    <path class="cls-2" d="m594.73,48.36c1.78-.88,18.11,5.69,19.4,7.62,1.29,1.93-5.38,19.29-7.22,19.9-1.85.61-19.57-6.74-20.09-8.02-.97-2.39,6.13-18.62,7.91-19.5Z"/>
    <path class="cls-2" d="m606.18,71.82c-.1-.03-.2-.05-.3-.06-.15-.24-.31-.46-.53-.68-3.21-3.11-26.53-.74-26.53-.74,0,0-2.92,4.94,1.52,11.89,3.49,5.47,12.77,2.34,18.85-.53l-1.26,2.63,5.17,2.69s9.34-4.28,10.5-8.65c.69-2.62-5.49-5.93-7.41-6.56Z"/>
    <path class="cls-2" d="m585.77,67.3s-5.13,1.56-9.88,6.79c0,0,.83.82.98,2.52,0,0,1.6-.89.2.84,0,0,.12.42.11,1.46,0,0,4.48-6.72,10.78-10.22l-2.18-1.39Z"/>
    <path class="cls-2" d="m585.91,68.04s1.13,2.97-.41,9.2c0,0,1.01-.77,2.81-1.05,0,0-.28-2.35,1.01-.13,0,0,.71.06,1.42.22,0,0,.27-3.25-2.77-7.36l-2.06-.88Z"/>
    <g>
      <path class="cls-2" d="m633.22,12.96c-4.28-4.64-9.7-7.04-11.26-7.67-.18-.07-.3-.12-.35-.14-.07-.03-.19-.08-.37-.15-1.63-.65-7.45-2.74-13.96-2.19-8.58.73-17,8.17-19.46,14.53s-2.35,17.13,2.28,22.99c3.87,4.9,9.73,7.25,13.23,8.65l1.22.49c4.83,1.93,13.81,5.53,22.09.58,4.27-2.56,7.74-7.1,10.3-13.49,3.57-8.92,2.29-17.08-3.72-23.6Z"/>
      <path class="cls-2" d="m629.48,43.03c-6.28-1.21-9.53-3.82-9.53-3.82l11.18,1.31c2.94-7.33-4.3-12.53-4.3-12.53,4.28.64,7.38,2.41,7.38,2.41-1.19-3.33-4.36-5.55-4.36-5.55,2.12.61,4.09,1.95,4.09,1.95-.59-1.38.61-1.54.61-1.54.29-4.75-2.4-10.56-2.4-10.57-4.47-5-10.45-7.13-10.45-7.13,0,0-20.95-9.37-29.19,11.19-8.23,20.56,6.45,26.09,13.18,28.79,4.6,1.84,12.82,5.3,20.19.7,2.67-2.7,3.6-5.22,3.6-5.22Z"/>
      <path class="cls-2" d="m593.75,34.47c2.26,1.96,7.15,4.63,7.15,4.63-3.23-2.54-5.36-5.93-5.36-5.93,1.24.92,3.35,2.07,3.35,2.07-4.69-4.63-5.04-8.24-5.04-8.24,1.18-2.06,2.88-3.15,2.88-3.15l27.15,10.94c-9.11-9.09-17.35-12.91-17.35-12.91,2.9.42,7.49,1.99,7.49,1.99-6-3.67-10.67-5.34-10.67-5.34,3.5.5.65-1.51.65-1.51,7.07.43,17.41,4.51,17.41,4.51-7.66-4.87-13.33-7.17-13.33-7.17,8.26-1.58,16.76-4.87,16.76-4.87,0,0-21.96-14.12-32.98,7.57-9.11,17.92,6.02,28.9,11.96,32.24-10.07-7.7-10.08-14.84-10.08-14.84Z"/>
      <path class="cls-4" d="m607.03,26.72s.1.02.29.07c.19.05.47.11.81.21.69.19,1.66.5,2.79.93,1.13.43,2.42.98,3.77,1.63.67.33,1.37.67,2.06,1.04.7.36,1.39.76,2.08,1.15.69.4,1.37.81,2.03,1.23.66.42,1.31.84,1.93,1.26,1.24.84,2.36,1.69,3.3,2.45.94.76,1.69,1.45,2.21,1.95.26.24.46.46.59.59.13.14.2.22.2.22,1.63,1.75,1.33,5.14-.67,7.57-1.44,1.75-3.37,2.52-4.95,2.16,0,0-.1-.02-.29-.07-.19-.05-.47-.11-.81-.22-.69-.19-1.66-.5-2.79-.94-1.13-.43-2.42-.98-3.77-1.63-.68-.32-1.37-.67-2.06-1.04-.7-.36-1.39-.75-2.08-1.14-.69-.4-1.37-.8-2.04-1.22-.67-.41-1.31-.84-1.93-1.26-1.24-.84-2.36-1.68-3.3-2.45-.94-.76-1.69-1.45-2.21-1.95-.26-.24-.45-.46-.59-.59-.13-.14-.2-.22-.2-.22-1.62-1.76-1.32-5.15.69-7.57,1.44-1.74,3.36-2.51,4.93-2.16Z"/>
    </g>
    <path class="cls-2" d="m624.81,68.14l-7.13-1.52s3.93,2.32,3.27,5.88-2.66,6.78-2.66,6.78c0,0,2.93.67,4.32-.54s3.06-2.71,3.75-6.15c.41-2.03-1.55-4.45-1.55-4.45Z"/>
    <path class="cls-2" d="m618.91,56.46l5.89,11.68-7.13-1.52s-3.59-5.55-3.06-6.58,4.29-3.58,4.29-3.58Z"/>
    <path class="cls-2" d="m594.32,43.18s-.58-1.88-5.87.67c-5.28,2.55.27,21.02.27,21.02,0,0,4.38,2.34,7.23,3.57,2.85,1.23,3.63-6.23,3.63-6.23,0,0-6.11-2.89-5.29-4.69s.58-8.38.58-8.38l-.55-5.96Z"/>
    <path class="cls-2" d="m593.79,43.64c1.24.65,1.9,5.02-.16,8.22-.3.46-.88-.09-.72-.57.92-2.75.48-6.05-.62-7.02-.8-.71,1.16-.81,1.5-.63Z"/>
    <rect class="cls-2" x="591.1" y="47.46" width="27" height="3" rx="1.07" ry="1.07" transform="translate(71.84 -241.06) rotate(23.93)"/>
    <path class="cls-2" d="m618.13,54.27c-1.35-.37-4.81,2.39-5.48,6.13-.1.54.71.53.92.07,1.2-2.64,3.77-4.76,5.23-4.72,1.07.02-.3-1.38-.67-1.48Z"/>
    <g>
      <path class="cls-3" d="m597.15,64.39h0c1.05-.26,2.1-.54,3.13-.85.42-.13.83-.26,1.24-.39,1.1-.36,2.15-.74,3.13-1.12.45-.17.89-.35,1.31-.51,1.29-.52,2.39-1,3.19-1.36.73-.33,1.22-.57,1.38-.64.03-.02.06-.03.06-.03,1.05-.52,2.33-.1,2.85.96.49.99.15,2.17-.77,2.75-.06.04-.12.07-.19.11-.16.08-2.22,1.1-5.18,2.28-.42.17-.85.34-1.3.51-.95.36-1.98.73-3.04,1.08-.41.14-.82.27-1.24.4-.97.3-1.97.58-2.98.83-.39.1-.79.19-1.18.28-.13.03-.26.06-.39.09-.12.02-.24.03-.36.04-.67-2.54.35-4.4.35-4.4Z"/>
      <path class="cls-3" d="m609.15,60.15l-3.15,5.92c.45-.17.89-.34,1.3-.51l3.23-6.06c-.16.08-.64.31-1.38.64Z"/>
      <path class="cls-3" d="m615.43,59.46c1.28,2.84,1.68,5.38.19,6.09-1.57.75-3.15-1.35-4.43-4.19-1.28-2.84-1.85-5.37-.19-6.09,1.7-.74,3.15,1.35,4.43,4.19Z"/>
      <path class="cls-3" d="m613.75,61.39l-1.08-2.39c-.11-.24,0-.52.23-.64,2.86-1.38,7.7-3.83,13.71-7.34,1.16-.68,2.37-1.4,3.61-2.15,4.83-2.93,10.22-6.45,15.85-10.54,2.66-1.94,5.38-4,8.11-6.2,1.4-1.12,2.79-2.28,4.19-3.46.78-.66,1.98-.08,1.93.94-.02.51-.09,1.06-.2,1.65v.02c-.24,1.17-.87,2.22-1.79,2.98-6.73,5.52-13.42,10.28-19.53,14.26-10.75,7-19.73,11.6-24.12,13.72-.25.12-.54.01-.66-.24l-.27-.6Z"/>
    </g>
    <path class="cls-2" d="m610.06,69.73c.92-.89-3.03-4.35-2.07-4.66,2.9-.94,1.63,2.71,4.12.1,1.64-1.72-6.63-6.71-9.34-5.08-4.66,2.07-8.94,2.67-7.47,7.82,4.39,1.87,10.26,6.05,14.75,1.82Z"/>
    <path class="cls-2" d="m605.35,64.83c.2,2.23,3.62,2.53,2.99,3.32-1.88,2.39-1.83,5.73,1.53,7.05.93.37,7.4,5.22,8.74,2.36,2.72-4.31,2.57-6.89-.94-10.94-3.05-3.52-9.2-7.01-12.32-1.79Z"/>
    <path class="cls-2" d="m732.9,70.1s1.67,12.55.16,15.26c0,0,4,1,7,4,1.34,1.34,3.41,4.06,4,7,1,5-12.01,11.84-14,14l-1.59-3.82s-1.67-2.94-3.54-3.56-6.87-1.7-6.87-1.7c0,0-5,.08-8,4.08s-4,7-4,7c0,0-5,1-8-2-1,0-3.32-7.95-3-9s0-5,.19-7.67c-3.19-6.33-1.19-15.33-.46-19.97,1.09-6.95,6.34-10.2,16.95-10.96,13.6-.99,18.99.57,21.16,7.34Z"/>
    <g>
      <path class="cls-2" d="m727.43,20.49c-5.86-2.35-11.79-2.18-13.47-2.07-.19.01-.32.02-.37.03-.07,0-.21,0-.4.02-1.75.11-7.91.74-13.54,4.04-7.43,4.35-11.83,14.69-11.3,21.49.55,7.12,5.26,16.48,11.96,19.77,5.61,2.75,11.9,2.35,15.66,2.11l1.32-.08c5.19-.33,14.84-.96,20.18-8.99,2.76-4.15,3.93-9.74,3.49-16.62-.62-9.59-5.29-16.4-13.52-19.69Z"/>
      <path class="cls-2" d="m737.01,49.23c-6.19,1.61-10.25.66-10.25.66l10.66-3.63c-.51-7.88-9.28-9.46-9.28-9.46,4.14-1.26,7.7-1.01,7.7-1.01-2.5-2.49-6.32-3.13-6.32-3.13,2.18-.36,4.53,0,4.53,0-1.13-.99-.11-1.65-.11-1.65-1.78-4.41-6.72-8.5-6.72-8.5-6.19-2.59-12.5-1.93-12.5-1.93,0,0-22.95.56-21.52,22.67,1.42,22.1,17.06,20.77,24.29,20.31,4.95-.32,13.86-.74,18.53-8.06,1.25-3.59,1-6.26,1-6.26Z"/>
      <path class="cls-2" d="m701.08,56.89c2.89.8,8.44,1.1,8.44,1.1-4.01-.9-7.39-3.04-7.39-3.04,1.51.3,3.92.43,3.92.43-6.23-2.16-8.1-5.27-8.1-5.27.18-2.37,1.25-4.08,1.25-4.08l29.22-1.82c-12.14-4.28-21.22-4.18-21.22-4.18,2.79-.87,7.62-1.42,7.62-1.42-7-.73-11.93-.22-11.93-.22,3.37-1.05-.06-1.65-.06-1.65,6.56-2.65,17.66-3.43,17.66-3.43-9.01-1.1-15.12-.73-15.12-.73,6.77-4.99,13.03-11.61,13.03-11.61,0,0-25.9-3.29-26.51,21.03-.5,20.09,17.88,23.49,24.68,23.95-12.4-2.62-15.49-9.05-15.49-9.05Z"/>
      <path class="cls-4" d="m709.73,44.19s.1-.02.29-.07c.19-.03.47-.1.82-.16.71-.12,1.72-.26,2.92-.36,1.21-.1,2.61-.16,4.1-.15.75,0,1.52.01,2.3.05.78.03,1.58.09,2.37.14.79.07,1.59.14,2.36.23.78.09,1.54.19,2.28.31,1.48.23,2.85.51,4.03.79,1.18.28,2.15.58,2.83.81.34.1.61.22.79.28.18.07.28.11.28.11,2.22.88,3.41,4.07,2.65,7.12-.55,2.2-1.96,3.73-3.53,4.08,0,0-.1.02-.29.06-.19.03-.47.1-.82.15-.71.12-1.72.26-2.92.36-1.2.1-2.61.16-4.1.16-.75,0-1.52-.02-2.3-.05-.78-.03-1.58-.08-2.37-.14-.79-.07-1.59-.13-2.36-.23-.78-.08-1.54-.2-2.28-.31-1.48-.23-2.85-.5-4.03-.79-1.18-.28-2.15-.58-2.83-.81-.34-.11-.61-.22-.79-.28-.18-.07-.28-.11-.28-.11-2.22-.89-3.41-4.08-2.64-7.13.55-2.19,1.95-3.71,3.52-4.07Z"/>
    </g>
    <path class="cls-1" d="m699.56,111.86c-2-1-2,2-2,2l4,7s2.48-3.12,3.69-5.48c.63-1.23.91-2.25.31-2.52-1.25-.21-4,0-6-1Z"/>
    <path class="cls-1" d="m729.43,109.95c-.68-2.13-2.53-4.76-2.53-4.76l-4.71,1.84,3.38,10.83s1-2,1.98-3.83c1.02-1.17,2.5-2.18,1.89-4.08Z"/>
    <path class="cls-2" d="m732.75,86.6s-5.55,1.67-18.18,1.68c-12.64,0-18.19-1.65-18.19-1.65,0,0-2.31-.52-2.31.74,0,0-.05,2.14,1,3,0,0,8.43,2.01,19.5,2.01,11.07,0,21.5-5.01,21.5-5.01,0,0-2.16-.63-2.68-2.34,0,0,.3,2.2-.64,1.58Z"/>
    <path class="cls-2" d="m710.74,88.82s-4.2,3.33-6.72,9.94c0,0,1.07.46,1.84,1.99,0,0,1.16-1.41.5.71,0,0,.27.34.63,1.32,0,0,1.71-7.89,6.29-13.45l-2.54-.5Z"/>
    <path class="cls-2" d="m711.45,90.2s1.83,1.6,2.67,7.96c0,0,.65-1.09,2.23-2.01,0,0-1.12-2.09.89-.49,0,0,.69-.2,1.4-.32,0,0-1.03-3.59-5.36-6.3l-1.83,1.15Z"/>
    <path class="cls-2" d="m705.16,66.91c1.34-1.47,17-1.87,18.91-.55,1.9,1.32,3.49,19.76,2,21-1.49,1.24-20.19,1.59-21.14.59-1.78-1.87-1.1-19.58.24-21.04Z"/>
    <path class="cls-2" d="m702.88,63.24c-5.81,2.12-7.81,3.12-10.83,4.82-3.65,2.05-4.98,4.3-4.98,4.3,0,0-1.9,2.1,0,4,2.19,2.19,4,2,4,2,0,0,3-2,5.9-4.03,1.61-1.13,8.6-5.75,8.6-5.75l-2.69-5.34Z"/>
    <path class="cls-2" d="m702.56,63.86c1.39.15,3.6,3.98,2.86,7.71-.11.54-.85.24-.88-.27-.15-2.9-1.77-5.8-3.14-6.31-1-.37.78-1.17,1.16-1.13Z"/>
    <rect class="cls-2" x="701.06" y="63.36" width="27" height="3" rx="1.07" ry="1.07" transform="translate(3.49 -31) rotate(2.49)"/>
    <g>
      <path class="cls-3" d="m692.57,76.29h0c.92-.57,1.84-1.16,2.72-1.78.36-.25.71-.5,1.06-.76.93-.68,1.82-1.37,2.63-2.03.38-.31.74-.6,1.08-.89,1.07-.89,1.96-1.69,2.61-2.28.6-.54.98-.92,1.11-1.04.03-.03.05-.05.05-.05.84-.82,2.18-.81,3.01.03.77.79.81,2.02.12,2.85-.04.05-.09.11-.15.16-.13.13-1.77,1.73-4.22,3.77-.34.29-.71.58-1.08.89-.79.64-1.65,1.3-2.56,1.97-.35.26-.7.51-1.06.76-.83.59-1.69,1.16-2.57,1.71-.34.21-.69.42-1.04.63-.11.07-.23.14-.34.2-.11.06-.22.11-.33.15-1.42-2.21-1.03-4.29-1.03-4.29Z"/>
      <path class="cls-3" d="m702.67,68.55l-1.16,6.61c.38-.3.74-.6,1.08-.89l1.19-6.76c-.13.12-.51.49-1.11,1.04Z"/>
      <path class="cls-3" d="m708.43,65.95c2.09,2.3,3.26,4.59,2.07,5.73-1.26,1.2-3.42-.31-5.51-2.61-2.09-2.3-3.42-4.54-2.07-5.73,1.39-1.23,3.42.3,5.51,2.61Z"/>
      <path class="cls-3" d="m707.43,68.31l-1.76-1.94c-.18-.2-.17-.5.02-.68,2.29-2.2,6.13-6.03,10.77-11.22.9-1,1.82-2.06,2.77-3.16,3.68-4.28,7.73-9.29,11.81-14.93,1.93-2.67,3.88-5.47,5.79-8.41.98-1.5,1.95-3.03,2.92-4.59.53-.87,1.86-.69,2.12.3.13.49.25,1.03.32,1.63v.02c.14,1.18-.13,2.38-.77,3.38-4.7,7.33-9.58,13.93-14.16,19.6-8.06,9.98-15.17,17.13-18.7,20.51-.2.19-.51.18-.7-.03l-.44-.48Z"/>
    </g>
    <path class="cls-2" d="m703.03,76.74c.69-1.08-.3-1.32-.46-2.32-.19-1.2,1.22-1.05,1.37-2.59.24-2.37-5.84-5.43-8.09-3.2-4.04,3.11-8.06,4.7-5.41,9.36,4.71.78,9.21,3.93,12.58-1.25Z"/>
    <path class="cls-2" d="m729.1,64.86c-1.39.15.4,2.98,1.14,6.71.11.54.85.24.88-.27.15-2.9-.06-3.94-.86-5.31-.54-.92-.78-1.17-1.16-1.13Z"/>
    <path class="cls-2" d="m720,78.16c1,2,4.29,1.03,4,2-.88,2.91.39,6,4,6,1,0,8.8,2.16,9-1,.95-5.01-.13-7.35-4.88-9.84-4.12-2.16-11.12-3.16-12.12,2.84Z"/>
    <path class="cls-2" d="m739.32,74.12l-7.19,1.19s4.51.72,5.19,4.28,0,7.28,0,7.28c0,0,2.97-.45,3.83-2.08s1.86-3.64,1.24-7.1c-.36-2.04-3.07-3.57-3.07-3.57Z"/>
    <path class="cls-2" d="m729.57,65.41l9.75,8.71-7.19,1.19s-5.38-3.85-5.25-5.01,2.69-4.9,2.69-4.9Z"/>
  </g>
</svg>