<?xml version="1.0" encoding="UTF-8"?><svg id="Layer_2" xmlns="http://www.w3.org/2000/svg" viewBox="0 0 370.1 251.5"><defs><style>.cls-1,.cls-2{fill:#fff;}.cls-3{fill:#e2e2e2;}.cls-4{fill:#1f2349;}.cls-5,.cls-6{fill:#216182;}.cls-7{fill:#f2f2f2;stroke:#fff;}.cls-7,.cls-8{stroke-miterlimit:10;}.cls-8{fill:none;stroke:#216182;stroke-width:2px;}.cls-6{fill-rule:evenodd;}.cls-2{opacity:.8;}</style></defs><g id="system"><g><circle class="cls-7" cx="58.6" cy="192.9" r="58.1" transform="translate(-143 193.1) rotate(-73.2)"/><g><g><g><path class="cls-5" d="M115.4,222.5h-43.6c-.3,0-.5,.2-.5,.5v.2c0,.9-.7,1.7-1.7,1.7h-16.5c-.9,0-1.7-.7-1.7-1.7v-.2c0-.3-.2-.5-.5-.5H7.3c-.3,0-.5,.2-.5,.5v.4c0,.4,.2,.9,.6,1.1l1,.7c2.2,1.4,4.7,2.2,7.3,2.2H107c2.6,0,5.2-.8,7.3-2.2l1-.7c.4-.2,.6-.7,.6-1.1v-.4c0-.3-.2-.5-.5-.5Z"/><path class="cls-5" d="M70.6,223h-18.4c-.1,0-.2,0-.2,.2,0,.7,.5,1.3,1.1,1.3h16.5c.7,0,1.2-.6,1.1-1.3s-.1-.2-.2-.2Z"/></g><g><g><rect class="cls-5" x="16.7" y="164.7" width="89.3" height="57.2" rx="3" ry="3"/><rect class="cls-4" x="19.2" y="169.4" width="84.3" height="47.9"/></g><g><circle class="cls-2" cx="61.4" cy="167" r=".6"/><circle class="cls-5" cx="61.4" cy="167" r=".3"/></g></g></g><g><circle class="cls-2" cx="66.9" cy="137.7" r=".3"/><circle class="cls-5" cx="66.9" cy="137.7" r=".2"/></g></g><g id="Uuz952.tif"><g><path class="cls-3" d="M73.4,170.6c8.2,0,16.5,0,24.7,0,3,0,4.5,1.5,4.5,4.4,0,10.4,0,26.4,0,36.8,0,3.1-1.5,4.5-4.5,4.5-16.4,0-56.7,0-73.1,0-3.2,0-4.6-1.4-4.6-4.6,0-10.4,0-26.3,0-36.6,0-3.1,1.5-4.6,4.6-4.6,8.2,0,40.3,0,48.5,0Zm-26.6,7c0,.5,0,.9,0,1.3,0,9.1,0,18.1,0,27.2,0,1.9,.3,2.2,2.2,2.2,16.3,0,32.6,0,49,0,1.8,0,2.2-.3,2.2-2.1,0-9.1,0-18.2,0-27.3,0-1-.2-1.3-1.2-1.3-16.9,0-33.9,0-50.8,0-.4,0-.8,0-1.2,0Zm25.3-5c-3.4,0-6.8,0-10.2,0-1.3,0-2.1,.6-2.1,1.7,0,1,.8,1.7,2,1.7,.2,0,.3,0,.5,0,6.4,0,12.9,0,19.3,0,.4,0,.7,0,1.1,0,.8-.1,1.4-.8,1.4-1.6,0-.9-.6-1.5-1.5-1.6-.3,0-.6,0-1,0-3.2,0-6.4,0-9.7,0Zm24.6,3.3c.9,0,1.6-.8,1.6-1.7,0-.9-.8-1.6-1.7-1.6-.9,0-1.6,.8-1.6,1.7,0,.9,.8,1.6,1.7,1.6Zm-3.1-1.5c0-.9-.6-1.7-1.5-1.8-.9,0-1.7,.6-1.8,1.5,0,.9,.6,1.7,1.5,1.8,.9,0,1.7-.6,1.8-1.5Zm-4.7-.1c0-.9-.7-1.7-1.6-1.7-.9,0-1.6,.7-1.7,1.6,0,.9,.7,1.7,1.6,1.7,.9,0,1.7-.7,1.7-1.6Z"/><path class="cls-1" d="M22.9,177.6c.5,0,.8,0,1.2,0,16.9,0,57.8,0,74.7,0,1,0,1.2,.3,1.2,1.3,0,9.1,0,23.8,0,32.9,0,1.8-.3,2.1-2.2,2.1-16.3,0-56.6,0-72.9,0-1.9,0-2.2-.3-2.2-2.2,0-9.1,0-23.7,0-32.8,0-.4,0-.8,0-1.3Z"/><path class="cls-1" d="M72.2,172.6c3.2,0,6.4,0,9.7,0,.3,0,.6,0,1,0,.9,.1,1.5,.8,1.5,1.6,0,.8-.6,1.5-1.4,1.6-.3,0-.7,0-1.1,0-6.4,0-12.9,0-19.3,0-.2,0-.3,0-.5,0-1.3,0-2-.7-2-1.7,0-1,.8-1.6,2.1-1.7,3.4,0,6.8,0,10.2,0Z"/><path class="cls-1" d="M96.8,176c-.9,0-1.7-.7-1.7-1.6,0-.9,.7-1.7,1.6-1.7,.9,0,1.7,.7,1.7,1.6,0,.9-.7,1.7-1.6,1.7Z"/><path class="cls-1" d="M93.7,174.5c0,.9-.9,1.6-1.8,1.5-.9,0-1.6-.9-1.5-1.8,0-.9,.9-1.6,1.8-1.5,.9,0,1.6,.9,1.5,1.8Z"/><path class="cls-1" d="M89,174.3c0,.9-.8,1.6-1.7,1.6-.9,0-1.6-.8-1.6-1.7,0-.9,.8-1.6,1.7-1.6,.9,0,1.6,.8,1.6,1.7Z"/></g></g><rect class="cls-7" x="37" y="186.1" width="18.3" height="22.3"/><rect class="cls-7" x="60.9" y="193.3" width="24.7" height="1.6"/><rect class="cls-7" x="60.9" y="189.3" width="24.7" height="1.6"/><rect class="cls-7" x="60.9" y="196.5" width="24.7" height="1.6"/><rect class="cls-7" x="60.9" y="200.5" width="24.7" height="1.6"/><rect class="cls-7" x="60.9" y="203.7" width="24.7" height="1.6"/></g><g><circle class="cls-7" cx="189.6" cy="190.9" r="54.1" transform="translate(-48 317.1) rotate(-73.2)"/><path class="cls-6" d="M148.8,162.1h84.4c.7,0,1.2,.6,1.2,1.2v54.7c0,.7-.6,1.2-1.2,1.2h-37l.3,3.5h10.4c.3,0,.3,.4,.5,.6l2.3,2.2c.5,.4-.5,1.2-1.1,1.2h-35.3c-.6,0-1.5-.8-1.1-1.2l2.2-2.2c.2-.2,.2-.6,.5-.6h9.9l.3-3.5h-36.4c-.7,0-1.2-.6-1.2-1.2v-54.7c0-.7,.6-1.2,1.2-1.2h0Zm2.9,3.9v46h78.9v-46h-78.9Zm77.5,49.9h.7v-.7h-.7v.7h0Z"/><g id="qFJKwP.tif"><g><path class="cls-5" d="M180.9,189c0-4.9,0-9.9,0-14.8,0-.6,0-1.3,.6-1.7,.7-.4,1.3,0,1.9,.3,8.2,5,16.4,9.9,24.6,14.8,1.5,.9,1.5,1.9,0,2.8-8.2,5-16.5,9.9-24.7,14.8-1.5,.9-2.4,.4-2.4-1.4,0-5,0-9.9,0-14.9Zm24.5,0c-7.3-4.4-14.5-8.7-21.7-13.1v26.2c7.3-4.4,14.4-8.7,21.7-13.1Z"/><path class="cls-1" d="M205.4,189c-7.3,4.4-14.5,8.7-21.7,13.1v-26.2c7.3,4.4,14.4,8.7,21.7,13.1Z"/></g></g></g><circle class="cls-7" cx="315.5" cy="190.7" r="54.1" transform="translate(41.5 437.5) rotate(-73.2)"/><g><g><rect class="cls-5" x="300.1" y="159.1" width="31.6" height="63.3" rx="3.2" ry="3.2"/><rect class="cls-1" x="301.3" y="162.9" width="29.1" height="53.1"/></g><g><g><rect class="cls-2" x="314.1" y="217.3" width="3.5" height="3.5" rx=".6" ry=".6"/><rect class="cls-5" x="314.4" y="217.5" width="3" height="3" rx=".4" ry=".4"/></g><g><g><circle class="cls-2" cx="319.1" cy="161" r=".4"/><circle class="cls-5" cx="319.1" cy="161" r=".3"/></g><g><path class="cls-2" d="M317.5,160.7h-3.3c-.2,0-.3,.1-.3,.3s.1,.3,.3,.3h3.3c.2,0,.3-.1,.3-.3s-.1-.3-.3-.3Z"/><path class="cls-5" d="M317.5,160.9h-3.3c0,0-.1,0-.1,.1s0,.1,.1,.1h3.3c0,0,.1,0,.1-.1s0-.1-.1-.1Z"/></g></g></g></g></g><g id="arrow"><g><line class="cls-8" x1="109.7" y1="8.1" x2="66" y2="97.2"/><polyline class="cls-5" points="61.8 105.4 58.8 91.4 75.4 99.6"/></g><g><line class="cls-8" x1="247.9" y1=".3" x2="279.9" y2="94.3"/><polyline class="cls-5" points="282.8 103 270.8 95.3 288.3 89.3"/></g><g><line class="cls-8" x1="184.5" y1="4.9" x2="191.8" y2="103.9"/><polyline class="cls-5" points="192.4 113.1 182.7 102.6 201.1 101.2"/></g></g></svg>