<?xml version="1.0" encoding="UTF-8"?><svg id="Layer_2" xmlns="http://www.w3.org/2000/svg" viewBox="0 0 216.5 293"><defs><style>.cls-1,.cls-2{fill:#fff;}.cls-3{fill:#216182;}.cls-4{fill:#f2f2f2;stroke:#fff;}.cls-4,.cls-5{stroke-miterlimit:10;}.cls-5{fill:none;stroke:#216182;stroke-width:2px;}.cls-2{opacity:.8;}</style></defs><g id="system"><g><circle class="cls-4" cx="108.3" cy="184.8" r="107.8" transform="translate(-99.9 234.8) rotate(-73.2)"/><g><g><g><path class="cls-3" d="M176.1,245.2h-54.8c-.3,0-.6,.3-.6,.6v.2c0,1.1-.9,2.1-2.1,2.1h-20.7c-1.1,0-2.1-.9-2.1-2.1v-.2c0-.3-.3-.6-.6-.6H40.4c-.3,0-.6,.3-.6,.6v.6c0,.6,.3,1.1,.7,1.4l1.3,.9c2.7,1.8,5.9,2.8,9.2,2.8h114.4c3.3,0,6.5-1,9.2-2.8l1.3-.9c.5-.3,.7-.8,.7-1.4v-.6c0-.3-.3-.6-.6-.6Z"/><path class="cls-3" d="M119.8,245.8h-23.1c-.1,0-.2,0-.3,.2-.1,.9,.6,1.6,1.4,1.6h20.7c.9,0,1.6-.8,1.4-1.6s-.1-.2-.3-.2Z"/></g><g><g><rect class="cls-3" x="52.3" y="172.6" width="112" height="71.8" rx="3.7" ry="3.7"/><rect class="cls-1" x="55.4" y="178.5" width="105.8" height="60.1"/></g><g><circle class="cls-2" cx="108.3" cy="175.5" r=".7"/><circle class="cls-3" cx="108.3" cy="175.5" r=".4"/></g></g></g><g><g><rect class="cls-3" x="60.3" y="118.1" width="57.2" height="41.2" rx="2.3" ry="2.3"/><rect class="cls-1" x="64.7" y="119.8" width="48.3" height="37.8"/></g><g><g><rect class="cls-2" x="61.1" y="137.4" width="2.7" height="2.7" rx=".6" ry=".6"/><rect class="cls-3" x="61.4" y="137.6" width="2.3" height="2.3" rx=".3" ry=".3"/></g><g><circle class="cls-2" cx="115.2" cy="138.7" r=".4"/><circle class="cls-3" cx="115.2" cy="138.7" r=".2"/></g></g></g><g><g><rect class="cls-3" x="130.3" y="119.4" width="20.6" height="41.2" rx="2.1" ry="2.1"/><rect class="cls-1" x="131.2" y="121.9" width="19" height="34.6"/></g><g><g><rect class="cls-2" x="139.5" y="157.3" width="2.3" height="2.3" rx=".4" ry=".4"/><rect class="cls-3" x="139.7" y="157.5" width="2" height="2" rx=".2" ry=".2"/></g><g><g><circle class="cls-2" cx="142.7" cy="120.7" r=".3"/><circle class="cls-3" cx="142.7" cy="120.7" r=".2"/></g><g><path class="cls-2" d="M141.7,120.5h-2.1c-.1,0-.2,0-.2,.2s0,.2,.2,.2h2.1c.1,0,.2,0,.2-.2s0-.2-.2-.2Z"/><path class="cls-3" d="M141.7,120.6h-2.1s0,0,0,0,0,0,0,0h2.1s0,0,0,0,0,0,0,0Z"/></g></g></g></g></g></g></g><g id="arrow"><g><line class="cls-5" x1="108" x2="108" y2="44"/><polyline class="cls-3" points="107.9 53.2 99 42 117.5 42"/></g></g></svg>